<?xml version="1.0" encoding="UTF-8" standalone="no"?>
<svg
   xmlns:dc="http://purl.org/dc/elements/1.1/"
   xmlns:cc="http://creativecommons.org/ns#"
   xmlns:rdf="http://www.w3.org/1999/02/22-rdf-syntax-ns#"
   xmlns:svg="http://www.w3.org/2000/svg"
   xmlns="http://www.w3.org/2000/svg"
   xmlns:sodipodi="http://sodipodi.sourceforge.net/DTD/sodipodi-0.dtd"
   xmlns:inkscape="http://www.inkscape.org/namespaces/inkscape"
   inkscape:version="1.0 (4035a4f, 2020-05-01)"
   sodipodi:docname="htwaves1x.svg"
   id="svg905"
   viewBox="0 0 450.000000 227.000000"
   preserveAspectRatio="xMidYMid meet"
   version="1.0"
   width="450.000000pt"
   d=""
   height="227.000000pt"
   style="zoom: 1;"
   cursor="default">
  <defs
     id="defs909" />
  <sodipodi:namedview
     inkscape:current-layer="g903"
     inkscape:window-maximized="0"
     inkscape:window-y="23"
     inkscape:window-x="0"
     inkscape:cy="151.33333"
     inkscape:cx="300"
     inkscape:zoom="1.1133333"
     showgrid="false"
     id="namedview907"
     inkscape:window-height="989"
     inkscape:window-width="2269"
     inkscape:pageshadow="2"
     inkscape:pageopacity="0"
     guidetolerance="10"
     gridtolerance="10"
     objecttolerance="10"
     borderopacity="1"
     bordercolor="#666666"
     pagecolor="#ffffff" />
  <metadata
     id="metadata833">Created by potrace 1.10, written by Peter Selinger 2001-2011<rdf:RDF>
  <cc:Work
     rdf:about="">
    <dc:format>image/svg+xml</dc:format>
    <dc:type
       rdf:resource="http://purl.org/dc/dcmitype/StillImage" />
    <dc:title></dc:title>
  </cc:Work>
</rdf:RDF>
</metadata>
  <g
     id="g903"
     fill="#000000"
     transform="translate(0.000000,227.000000) scale(0.050000,-0.050000)"
     stroke="none">
    <path
       id="path837"
       d="m 1103.5147,4029.2343 c -91.3713,-63.4136 -179.84837,-122.75 -196.60697,-132.1919 -15.7589,-9.4158 -23.3897,-23.6204 -16.2088,-30.4348 7.1807,-6.8143 96.867,44.551 199.07737,114.2504 227.0467,153.9962 200.0298,154.2891 442.1366,0.5739 109.8477,-69.1481 205.229,-120.669 211.0699,-114.5139 14.6022,15.3874 29.9112,3.7842 -210.0916,153.553 -244.0537,151.6635 -220.0357,151.292 -429.3765,8.7633" />
    <path
       id="path859"
       d="m 891.35063,3155.2557 c 1.8373,-31.963 5.9668,-36.8565 18.465,-17.5227 12.4459,21.3331 18.5223,18.4912 31.2512,-9.1851 13.9117,-34.6477 15.9111,-34.5954 41.9331,3.0988 15.4449,21.4116 28.23097,29.7491 28.54507,17.7533 0.9948,-37.9871 108.1937,-44.183 135.2417,-7.4624 16.3922,23.4372 24.3371,25.6458 24.8344,6.6523 0.419,-15.9945 15.5707,-21.5998 39.3793,-13.9738 21.8616,5.574 43.0114,0.1259 49.3235,-11.7129 6.3906,-14.8378 21.2284,-8.4474 40.5671,17.0677 26.1007,34.695 30.0993,34.7998 30.8586,5.8098 1.047,-39.9863 33.1931,-45.1466 47.2194,-7.7666 7.4737,20.2025 9.473,20.2549 10.9963,0.2876 1.3661,-13.969 16.6489,-24.5727 32.6434,-24.1539 16.9942,0.4447 29.7018,11.7816 29.3353,25.7768 0.5285,18.02 4.501,19.1243 14.9425,2.392 16.6489,-24.5726 120.6134,-21.8503 159.9452,4.1883 13.7858,8.3637 24.8082,7.652 25.0699,-2.3447 0.2876,-10.9961 21.4902,-18.4436 47.4813,-17.7631 37.987,0.9948 45.7747,9.2013 36.9661,39.9814 -6.5477,20.8358 -21.8829,33.4386 -35.7471,28.0739 -13.8382,-6.3645 -34.988,-0.9162 -47.298,10.7655 -16.4134,15.5757 -25.3057,11.3415 -34.6739,-12.9121 -9.2898,-27.2525 -18.2344,-29.4874 -40.6981,-12.0694 -22.4898,18.4176 -34.4071,15.1044 -56.614,-15.4873 -25.0748,-35.6686 -28.0738,-35.7472 -28.9114,-3.7581 -2.0729,40.9598 -24.1702,44.3824 -57.2685,9.5042 -18.4961,-19.4908 -23.5206,-18.6221 -24.0441,1.371 -0.3923,14.9949 -13.5453,20.6525 -29.3827,14.2358 -16.8371,-6.4429 -35.9615,-1.9421 -43.2733,9.8705 -9.3895,14.7593 -23.2539,9.3946 -40.5933,-16.068 -15.4447,-21.4116 -26.3101,-26.6979 -26.7028,-11.7031 -0.3923,14.9949 -14.5187,19.6267 -38.3273,12.0009 -20.8094,-7.5474 -44.9321,-3.1773 -53.2697,9.6088 -11.4673,17.7059 -22.3851,14.419 -39.7245,-11.0437 -22.1807,-31.5914 -24.18,-31.6437 -38.0394,1.0047 -13.8856,33.648 -16.8846,33.5694 -41.9071,-4.0984 -24.1014,-34.6429 -28.1,-34.7475 -28.8591,-5.7575 -1.1519,43.9849 -33.14087,43.1473 -57.95397,-2.5179 -19.1293,-33.5123 -20.129,-33.5384 -20.9928,-0.5495 -1.4971,18.9674 -14.9113,34.6215 -31.9056,34.1766 -17.9937,-0.4714 -29.5185,-18.7792 -28.8117,-45.7698" />
    <path
       id="path863"
       d="m 1073.5915,2321.5441 c -108.12977,-72.8556 -205.52527,-135.4265 -216.39057,-140.7127 -10.8915,-4.2866 -13.6287,-14.3617 -5.422,-22.1496 7.2069,-7.814 106.785,47.8117 221.83387,123.8494 l 207.4723,137.478 106.7964,-67.2273 c 114.9769,-74.0157 157.2505,-83.9124 156.0202,-36.9285 -0.4447,16.9941 8.2116,30.2253 19.2079,30.5131 10.9962,0.2876 20.5428,-20.4691 21.1972,-45.4606 1.9632,-74.9742 52.3339,-126.6735 90.4829,-93.6635 27.3882,23.7251 31.4393,21.8304 32.434,-16.1566 0.6285,-23.9917 9.0181,-38.7772 17.858,-32.5437 21.6259,14.5712 2.1712,108.094 -25.2646,124.3814 -12.179,6.6834 -31.9366,-2.837 -45.4345,-22.197 -21.2071,-30.5656 -26.3363,-25.6983 -43.0589,39.8866 -22.1919,83.4475 -66.9098,110.2862 -82.281,47.8624 -8.9234,-41.2476 -10.9226,-41.3 -93.3608,12.5605 -162.7723,103.7746 -145.8305,106.219 -362.0904,-39.4919" />
    <path
       id="path883"
       d="m 1172.4527,1489.3275 c -21.1023,-34.5642 -55.6454,-52.4745 -120.3876,-63.1729 -89.65488,-14.3519 -224.83288,-123.9279 -184.19218,-147.8723 18.2817,-10.525 71.0591,36.8727 82.1126,73.1746 3.6584,13.1001 51.17078,32.3505 105.89008,43.7868 56.7188,11.4886 112.0452,37.946 130.4366,61.4355 37.7824,47.0052 55.6454,52.4746 56.6139,15.4872 0.3923,-14.9948 24.1963,-45.3821 51.8153,-68.6671 28.6186,-23.2588 51.4488,-54.672 51.8676,-70.6665 0.3923,-14.9949 13.8593,-32.6484 30.011,-38.2275 34.3285,-12.1055 89.4767,59.3625 88.0893,112.3444 -2.4868,94.9675 49.5526,132.3425 62.8786,43.6609 6.124,-42.8544 19.4598,-55.5096 63.5756,-59.3561 38.1179,-4.0035 62.5808,-21.3691 76.414,-53.0178 23.5369,-58.4039 40.6358,-61.9576 39.2484,-8.9757 -1.2042,45.9842 -57.7559,104.5239 -84.3017,86.823 -30.5182,-18.8054 -78.8109,29.9472 -80.1721,81.9294 -2.5391,96.9668 -73.4935,56.0953 -100.5252,-57.6512 -25.2418,-105.697 -73.8898,-157.9884 -75.8792,-82.0144 -0.5761,21.9925 -18.3554,51.5371 -38.7411,66.0084 -20.3597,13.4717 -48.1881,44.7541 -62.8377,69.379 -31.4818,56.1951 -54.474,55.5931 -91.9162,-4.4077" />
    <path
       id="path889"
       d="m 1546.5609,751.35453 c -58.2403,-182.58712 -88.5752,-208.39003 -129.2062,-108.41937 -32.0315,77.18796 -80.9624,73.90598 -118.8283,-8.11335 l -30.2875,-65.81538 -27.6926,64.29713 c -39.4479,92.99923 -73.0698,78.11402 -106.785,-47.8117 -31.8206,-121.87473 -71.2572,-143.91461 -111.3907,-62.93744 -12.7288,27.67629 -36.29681,49.06667 -51.29171,48.67402 -14.9949,-0.3927 -36.4115,-22.96101 -48.674,-51.2917 -11.2891,-27.30488 -32.6795,-50.87289 -47.6744,-51.26555 -14.9948,-0.39269 -26.7551,-9.70368 -26.4673,-20.69993 1.0734,-40.98595 62.45,-16.37085 83.186,32.1886 25.4201,60.68621 47.3079,65.26074 65.6895,12.72391 35.76341,-105.09984 138.52361,-56.3932 160.03351,77.21564 13.7957,84.39005 37.3687,101.01282 55.0384,37.45358 18.7481,-66.53203 88.7241,-64.69966 111.9617,2.93181 9.2635,28.25219 25.6819,50.68965 35.6785,50.95142 9.9965,0.26176 24.5676,-21.36422 32.2982,-49.17138 26.4786,-94.3392 108.7171,-64.17612 159.505,59.19565 48.9457,117.32144 58.1521,109.55978 81.8574,-69.88118 15.0847,-117.64545 56.8461,-222.58823 70.663,-177.21098 3.6584,13.10024 -3.0987,41.93324 -15.6705,63.61159 -11.5459,20.70486 -23.0345,77.42355 -24.2911,125.4071 -5.1356,157.91969 -81.5185,247.95107 -117.6519,137.96751" />
    <path
       id="path835"
       d="m 3783.8788,4019.9136 3.7956,-144.9503 -189.9349,-4.9736 -189.9349,-4.9736 -7.7943,144.8455 -6.7946,144.8718 -8.0693,-150.2627 c -8.9169,-194.3 -25.2778,-180.7236 212.6405,-174.4935 236.9188,6.2039 231.0518,1.0485 226.1566,187.9845 l -3.0888,117.9596 127.9562,3.3506 c 69.9759,1.8324 156.1035,-1.9144 191.2748,-7.9957 l 64.3184,-11.3203 -2.7259,-125.1142 c -2.1662,-70.0807 3.4815,-132.9544 11.6883,-140.7423 8.2066,-7.7878 13.4766,58.3729 11.1467,147.3423 l -4.2667,162.9441 -220.0817,0.239 -220.0816,0.2391 3.7956,-144.9503" />
    <path
       id="path839"
       d="m 2563.9281,4032.0654 c -179.1055,-74.714 -346.5555,-136.1184 -371.5208,-137.7724 -24.9915,-0.6542 -44.7228,-11.1745 -44.4086,-23.1705 0.9161,-34.988 93.2297,-7.5622 412.8731,124.8506 408.7227,168.7569 376.7597,166.9195 387.6839,17.1542 4.8051,-68.8978 18.3716,-128.5632 30.4723,-132.2477 14.0999,-3.6321 16.1826,31.4345 4.1443,109.1459 -9.6464,62.769 -18.4241,130.5626 -19.9211,149.5297 -4.3602,51.9038 -41.1119,41.9383 -399.3231,-107.4898" />
    <path
       id="path841"
       d="m 4615.0677,4095.6423 c -8.5257,-18.2294 -10.7705,-85.3112 -6.0702,-150.2103 l 9.0869,-117.8025 308.2872,-6.9323 c 361.3474,-8.5441 319.833,-27.6374 322.3282,144.487 l 2.3593,139.1095 84.8138,8.2229 84.8138,8.2229 3.691,-140.9516 c 2.1203,-80.9723 12.6879,-140.716 23.684,-140.4281 11.996,0.3142 18.3441,63.5019 16.0667,150.4721 l -3.9266,149.9486 -119.9587,-3.1412 -119.959,-3.1413 3.6648,-139.952 3.6648,-139.952 -196.9325,-5.1569 c -108.9628,-2.8533 -239.0752,-0.2584 -289.2413,5.4304 l -92.2827,9.5877 -9.4794,132.7973 c -6.1452,81.8672 -15.1371,119.6447 -24.6101,99.3898" />
    <path
       id="path843"
       d="m 5848.2102,3955.9211 0.01,-153.0522 75.2883,-10.0326 c 41.1692,-5.9244 221.2646,-7.2105 399.2036,-2.551 l 322.8893,8.4551 7.5572,55.2168 6.5575,55.1906 4.4388,-54.9026 c 2.7845,-29.9373 13.4356,-54.6671 25.4314,-54.3529 12.9957,0.3399 17.5015,57.4778 10.9375,155.3394 -13.5468,211.718 -68.9206,225.2731 -72.4989,18.1085 l -2.4641,-135.1107 -377.8704,-9.895 -377.8705,-9.8949 -10.7932,144.7671 -10.7933,144.7671 -0.02,-152.0527" />
    <path
       id="path845"
       d="m 7468.0455,4054.6535 c -31.3134,-64.8419 -55.8859,-81.4908 -203.4475,-138.373 -183.209,-70.8201 -188.1287,-73.9499 -172.7412,-88.5522 28.7495,-28.2571 359.7606,128.4615 389.3102,184.2541 37.2066,68.9976 29.2093,68.7882 218.8464,8.7317 165.4359,-52.6875 205.234,-82.6558 207.1449,-155.6309 0.6542,-24.9914 10.2011,-45.7486 21.1974,-45.4606 29.9896,0.7853 21.7666,85.5991 -13.5044,133.6922 -17.6486,24.5465 -88.5669,58.7018 -167.2208,82.651 -74.6029,22.0547 -160.4376,52.8183 -189.7942,66.0544 -51.663,24.6561 -55.6094,22.5521 -89.7908,-47.3667" />
    <path
       id="path847"
       d="m 2548.2738,3367.468 c 2.0468,-39.9602 36.1089,-80.0822 56.7614,-66.537 10.8129,7.2856 25.1483,-5.3436 31.7484,-28.1785 6.6,-22.8351 20.9616,-36.4639 31.7747,-29.1783 9.8394,6.2597 24.0442,-1.3711 31.4868,-18.182 6.4691,-17.8367 21.6733,-25.4414 32.4864,-18.1559 10.8129,7.2856 19.9145,3.5225 20.2286,-8.4734 0.2876,-10.9961 14.5449,-20.6262 30.5395,-20.2074 16.9942,0.4446 30.2514,-9.2113 30.5655,-21.2071 0.3144,-11.9959 13.4407,-16.6539 29.278,-10.2372 14.8379,6.3906 30.9109,3.8105 35.1714,-6.0814 8.5731,-21.783 137.1575,-42.4242 136.6078,-21.4313 -1.8898,33.9621 -38.7935,68.0078 -59.446,54.4625 -11.8127,-7.3118 -21.9139,-3.5748 -22.2281,8.421 -0.3143,11.9959 -9.442,16.7586 -20.255,9.4731 -10.8129,-7.2856 -19.9407,-2.5229 -20.2811,10.4726 -0.3399,12.9955 -13.4667,17.6536 -28.3045,11.263 -15.8374,-6.4167 -34.0929,3.1086 -41.5356,19.9195 -6.4691,17.8369 -18.6745,25.5199 -25.4888,18.3392 -6.8143,-7.1809 -23.9133,-3.6273 -39.2485,8.9756 -15.3089,11.6032 -27.4096,15.2877 -27.2,7.2905 0.1827,-6.9977 -22.2805,10.4203 -50.0304,38.7036 -27.7499,28.2833 -59.2104,45.4655 -71.0231,38.1539 -11.7865,-8.3115 -21.0189,0.45 -21.4639,17.4441 -0.4448,16.9943 -9.8084,30.7539 -20.8047,30.4659 -10.9962,-0.2876 -19.7051,-11.5198 -19.3388,-25.515" />
    <path
       id="path849"
       d="m 3777.6377,3362.3156 c -20.3384,-25.5412 -48.7788,-47.2931 -62.774,-47.6597 -13.9952,-0.3666 -24.7558,-9.6512 -24.4941,-19.6478 0.2876,-10.9963 -12.6029,-15.3352 -29.7803,-8.7826 -20.1763,6.474 -29.9635,-1.7849 -29.3875,-23.7774 0.759,-28.9901 -4.2131,-30.1206 -29.728,-10.7819 -24.5154,19.3649 -32.4865,18.1558 -40.8288,-7.0712 -6.5266,-18.177 -24.2847,-27.6452 -39.4367,-22.0399 -16.1515,5.5792 -33.9098,-3.889 -39.4627,-21.0402 -6.5526,-17.1774 -23.3112,-26.6193 -37.4373,-21.9875 -23.2278,8.3947 -60.7485,-48.6069 -44.3089,-65.1823 13.3097,-11.6556 94.5225,19.4811 94.0774,36.4752 -0.2352,8.9969 12.6815,12.3362 29.8588,5.7837 17.1512,-5.553 34.9096,3.9151 42.3832,24.1176 9.316,26.2529 15.2616,28.4092 28.8068,7.7567 13.5453,-20.6524 23.4633,-17.3918 46.6436,14.226 21.2072,30.5656 29.1259,33.7739 30.7277,10.8081 1.5232,-19.967 17.3082,-11.5509 50.3019,27.3259 26.1792,31.6963 47.7005,50.266 48.9358,41.2952 0.2352,-8.9969 12.9694,1.34 29.3876,23.7775 15.4448,21.4116 28.2833,27.75 28.6237,14.7542 0.3665,-13.9951 9.5204,-19.7575 20.3333,-12.4719 10.813,7.2856 20.0718,-2.4754 20.5429,-20.4693 0.5238,-19.9931 11.7554,-28.7021 27.5928,-22.2853 14.8379,6.3906 39.1437,-4.977 54.6883,-25.5772 14.5188,-19.6267 34.826,-31.099 43.6921,-25.8651 8.8398,6.2336 15.9682,1.4184 16.2824,-10.5775 0.2875,-10.9961 14.5448,-20.6262 30.5395,-20.2074 16.9941,0.4446 30.2515,-9.2113 30.5394,-20.2075 0.3143,-11.9959 9.4158,-15.759 20.2287,-8.4734 10.813,7.2856 19.9147,3.5226 20.2027,-7.4738 0.2874,-10.9961 16.4918,-18.5746 35.4591,-17.0775 18.9673,1.4969 51.1134,-3.6632 70.3163,-11.1633 20.2287,-8.4732 35.1712,-6.0814 34.8571,5.9146 -0.8376,31.989 -64.2562,85.3472 -89.0119,75.6959 -11.8912,-4.3129 -40.2481,8.9494 -62.7641,28.3667 -22.5422,20.4169 -43.7444,27.8644 -47.4814,17.7631 -2.7109,-11.0747 -29.0423,1.2402 -58.7392,27.4719 -28.6709,25.2581 -62.2355,46.3867 -73.2317,46.0988 -10.9963,-0.2876 -39.5364,19.9719 -63.183,44.3612 l -44.2155,45.8584 -38.756,-48.031" />
    <path
       id="path851"
       d="m 5016.6865,3400.803 c -6.6834,-12.1792 -31.2036,-30.8274 -54.9075,-42.4519 -23.73,-10.6248 -77.8997,-43.054 -121.1779,-71.1965 -43.3043,-27.1428 -91.5545,-56.4159 -108.3393,-64.8582 -43.4351,-22.1446 -103.6339,-91.7443 -90.298,-104.3995 7.1546,-5.8147 51.4324,22.3541 99.3686,63.623 47.9361,41.269 100.054,75.6451 116.0485,76.0638 15.9946,0.419 39.6199,15.0424 53.1963,31.4033 13.5502,17.3607 40.2006,31.063 60.1937,31.5865 20.9929,0.5495 45.5655,17.1988 55.0647,36.454 18.1558,32.4864 21.1548,32.5649 57.9801,1.5182 21.4902,-18.4438 47.9001,-33.7576 57.8967,-33.4959 10.9962,0.2875 35.4592,-17.0776 54.0289,-38.5989 19.5693,-21.4951 49.0306,-38.7298 65.0251,-38.311 15.9945,0.419 36.2756,-10.0539 45.6391,-23.8135 22.9086,-34.4121 141.9627,-111.3219 170.9527,-110.5629 14.9949,0.3923 9.5778,16.2564 -13.043,39.6723 -20.5689,21.4689 -46.0316,38.8083 -56.0281,38.5466 -9.9966,-0.2619 -43.4827,17.8678 -73.0487,39.1012 -236.6584,174.8648 -296.5021,206.3091 -318.5519,169.7194" />
    <path
       id="path853"
       d="m 6277.991,3392.0243 c -8.4211,-22.228 -27.7598,-47.7429 -41.5194,-57.1063 -14.7592,-9.3896 -26.2054,-30.6965 -25.7866,-46.691 0.4446,-16.9942 -7.3428,-25.2009 -17.4964,-19.4647 -9.154,5.7624 -21.8093,-7.5735 -27.2313,-29.723 -12.6078,-53.3483 -72.6134,-53.9193 -73.9747,-1.9371 -1.3088,49.9829 -37.3488,51.0398 -56.0855,2.5327 -7.4998,-19.2028 -31.0466,-36.8253 -53.0129,-38.4009 -90.8903,-5.381 -105.728,-11.7716 -114.6777,-52.0197 -8.1591,-32.2247 -3.0038,-38.0917 22.7255,-27.4145 18.7841,8.4945 44.5658,17.1725 57.509,19.5121 13.9428,2.3658 29.7279,10.7819 36.5422,17.9627 6.8145,7.1809 24.7821,8.6517 38.9344,3.0202 15.1257,-4.6056 30.8322,6.8095 35.2808,27.9332 6.2385,29.1733 9.2375,29.2518 11.8913,4.3127 5.4906,-56.8758 99.0134,-37.421 135.3251,27.5518 33.4435,59.896 83.5622,94.2197 84.5046,58.2321 0.2876,-10.9963 9.3896,-14.7593 20.2026,-7.4737 10.813,7.2855 19.9146,3.5225 20.2287,-8.4735 0.2876,-10.9961 14.545,-20.6263 30.5395,-20.2074 16.9941,0.4447 30.4608,-17.2085 31.0367,-39.201 1.2042,-45.9843 73.1796,-44.0996 100.9392,3.6436 15.3402,25.4102 17.3394,25.4625 19.0198,-0.5024 0.497,-18.9935 22.8301,-31.4131 62.8687,-32.3654 35.0666,-2.0828 75.5239,-19.0295 91.0162,-37.6304 24.8556,-32.3604 27.8546,-32.2818 27.0431,-1.2924 -0.2307,47.01 -56.4944,94.5535 -110.4759,93.1399 -30.9895,-0.8115 -51.3752,13.6599 -61.1575,43.414 -14.1473,43.6446 -16.1204,42.5926 -40.5933,-16.0681 -15.1306,-33.4075 -27.7859,-46.7434 -28.2047,-30.7489 -1.7065,26.9646 -4.7055,26.8861 -20.9928,-0.5494 -16.3136,-26.436 -18.313,-26.4885 -19.967,-1.5232 -0.4446,16.9941 -23.249,47.4076 -49.8422,69.7192 -26.5931,22.3115 -53.6313,61.6173 -59.3625,89.4767 -8.2017,45.801 -10.2273,46.7483 -25.227,8.3424" />
    <path
       id="path855"
       d="m 2488.4739,3342.2556 c 0.2618,-9.9965 -12.6291,-14.3355 -29.8065,-7.783 -19.1767,6.5003 -36.8302,-6.9664 -48.0408,-37.2702 -14.8951,-42.4044 -17.8679,-43.4827 -19.8099,-7.5212 -2.9155,34.9356 -5.9407,35.8569 -27.2263,8.2901 -12.5506,-17.3343 -39.0178,-38.0344 -57.8019,-46.5289 -18.8102,-7.495 -35.2285,-29.9325 -34.7312,-48.926 -1.0831,-35.0404 -1.1092,-34.0407 -15.9945,-0.4189 -13.8593,32.6485 -17.858,32.5437 -57.823,-7.5162 -55.5932,-54.4739 -56.3621,-101.5101 -2.7471,-86.1014 21.8353,6.5738 39.4889,20.0406 39.2533,29.0375 -0.2619,9.9966 6.5527,17.1774 14.5761,16.3872 34.1192,-4.1084 102.2317,30.6866 111.5477,56.9394 5.6053,15.152 23.4159,22.6208 40.5671,17.0677 21.2022,-7.4475 30.9893,0.8116 30.335,25.803 0.2667,28.0166 4.1867,31.1203 17.732,10.4678 14.5711,-21.626 25.515,-19.3387 58.7442,10.5413 49.8307,45.32 52.4109,61.3931 11.0323,75.3146 -16.1779,6.5788 -30.0683,2.2137 -29.8065,-7.7829" />
    <path
       id="path857"
       d="m 7310.5313,3285.4918 c -102.1059,-73.6979 -199.3442,-142.2668 -216.0766,-152.7084 -15.759,-9.4158 -23.3897,-23.6203 -16.209,-30.4348 8.1806,-6.7882 105.6546,52.7838 218.6257,131.7681 l 204.264,145.3969 139.2567,-84.3835 c 77.2565,-46.994 156.6435,-98.9336 176.108,-116.43 30.6965,-26.2055 42.7187,-26.891 68.1338,-4.218 25.4152,22.6731 32.4914,19.8574 42.4568,-16.8944 18.6695,-63.533 51.3441,-50.6734 34.6739,12.9121 -21.0616,78.4756 -45.5768,97.8405 -74.5195,57.0689 -22.2068,-30.5919 -38.3583,-25.0127 -176.7199,63.3957 -83.4118,52.8347 -165.7713,103.6961 -183.0011,112.248 -21.2807,10.4465 -87.3678,-25.2956 -216.9928,-117.7206" />
    <path
       id="path861"
       d="M20561.183594,7552.864258 C20535.183594,7535.864258 20548.183594,7407.864258 20575.183594,7407.864258 C20585.183594,7407.864258 20593.183594,7443.864258 20593.183594,7487.864258 C20593.183594,7574.864258 20593.183594,7573.864258 20561.183594,7552.864258 " />
    <path
       id="path865"
       d="m 2343.4671,2311.0437 c -91.2405,-68.4118 -179.6129,-131.7469 -196.3453,-142.1884 -15.7588,-9.4158 -22.39,-23.5942 -15.183,-31.4082 8.1805,-6.7882 99.7351,49.6277 203.7879,125.3775 104.0266,76.7493 191.504,136.0596 194.6077,132.1395 3.0775,-2.9204 16.6751,-25.5723 30.325,-50.2234 29.404,-53.2485 59.4723,-55.4622 94.2297,-7.536 23.154,32.6174 26.2053,30.6966 27.488,-18.2867 2.7535,-66.9508 41.4211,-91.9471 73.2317,-46.0988 20.2338,29.5398 25.3368,25.6721 38.9557,-35.9926 13.8021,-68.6623 61.5189,-95.4222 77.1781,-43.9948 4.6056,15.1258 17.7843,8.4685 32.5125,-19.1555 36.6896,-64.0615 68.443,-54.2269 38.7249,11.0175 -39.2385,85.002 -55.521,95.5794 -85.3848,51.7827 -26.0484,-36.6945 -28.1001,-34.7476 -42.9279,34.8882 -14.7233,65.6371 -72.8818,109.1295 -71.4158,53.1488 1.2041,-45.9843 -37.5681,-16.9893 -44.9011,33.8362 -9.8035,68.7669 -60.8908,71.4306 -78.1042,2.9565 -11.6867,-50.3232 -11.6867,-50.3232 -38.3796,14.0001 -33.1882,83.1597 -41.1331,80.9511 -238.3995,-64.2626" />
    <path
       id="path867"
       d="m 3665.0274,2410.0924 c -11.6294,-14.3093 -29.6806,-50.7944 -39.8915,-81.072 -21.4215,-60.5815 -69.0909,-73.8339 -89.4194,-23.3487 -18.1198,42.5403 -75.7907,-8.9871 -110.5007,-96.9258 -12.1316,-33.329 -30.4445,-59.8174 -41.4408,-60.1054 -9.9965,-0.2618 -11.7341,-10.3107 -3.3965,-23.0969 16.6751,-25.5723 86.6871,51.2869 85.5354,95.2718 -0.3665,13.9952 13.0528,36.3542 28.6808,50.7682 24.468,20.6475 29.4924,19.7788 30.2254,-8.2117 1.6491,-62.9784 87.677,-24.7133 128.5419,57.3846 45.6013,92.2253 57.5449,94.5388 86.5775,17.2722 26.85,-70.3213 37.8986,-72.0326 95.4386,-15.507 47.7791,47.2669 87.0014,39.2909 88.5195,-18.6893 0.5238,-19.9931 19.5122,-57.5089 42.1853,-82.9242 l 41.2165,-45.9367 40.6768,51.0823 40.7029,50.0826 39.2173,-45.9891 c 21.6473,-24.4417 39.5315,-57.9851 39.9502,-73.9796 0.4191,-15.9945 8.6255,-23.7824 18.4651,-17.5227 28.545,17.7534 0.8263,83.0501 -55.4899,132.5928 l -51.2132,45.6751 -29.8114,-45.7959 c -40.3365,-64.078 -58.5135,-57.5515 -84.8351,30.7897 -28.5041,95.2865 -75.038,115.0752 -134.5512,57.4975 l -43.8589,-44.1631 -33.612,61.141 c -36.7681,67.0605 -56.9707,74.5343 -87.9126,33.7103" />
    <path
       id="path869"
       d="m 4978.9164,2363.2886 c -11.1844,-31.3035 -24.8394,-44.6655 -30.2041,-30.8013 -17.1201,42.5664 -65.6846,25.2893 -77.3189,-27.0332 -13.3981,-61.3718 -38.2848,-66.0247 -53.7721,-9.4108 -16.4345,54.5885 -47.8476,31.7584 -62.8786,-43.6609 -13.241,-67.3697 -47.8625,-82.2811 -49.4593,-21.3021 -1.5968,60.9792 -32.2459,47.1721 -77.1618,-33.0311 -45.837,-83.2283 -47.6531,-90.2784 -18.6631,-89.5191 10.9962,0.2874 32.2557,28.8541 45.3609,63.2089 22.4998,57.6088 25.4725,58.6869 36.4638,20.9617 17.5914,-60.5603 54.343,-50.5948 82.4481,22.1659 23.4469,59.6342 25.42,60.6863 37.5419,17.9889 16.5131,-57.5875 63.6329,-23.3423 82.4792,59.1793 12.6078,53.3482 13.6074,53.3745 31.7534,9.8345 24.6412,-62.3762 51.4488,-54.6719 79.4491,22.0875 l 23.2899,65.632 9.4369,-54.7717 c 10.7247,-65.7418 33.8214,-69.1384 73.2892,-10.085 l 28.8641,43.7705 14.3829,-52.6415 c 16.5393,-58.587 30.6915,-64.2185 65.7369,-27.2885 18.496,19.4908 23.6776,12.6241 24.777,-29.3614 1.6491,-62.9785 16.7749,-67.5841 52.4795,-17.6323 23.1803,31.6176 26.2578,28.6972 27.8285,-31.2823 2.4394,-54.9549 8.699,-64.7945 35.4019,-53.0914 18.8102,7.4948 40.9598,2.0729 49.3235,-11.7129 9.3634,-13.7596 21.4901,-18.4439 28.3046,-11.263 19.4695,20.5167 -40.5262,95.9721 -67.2552,85.2687 -13.8381,-6.3645 -25.1485,5.3436 -25.6719,25.3366 -1.3352,50.9825 -22.7468,66.4274 -54.029,38.599 -20.5479,-17.5439 -26.6505,-13.7024 -27.5406,20.286 -1.1779,44.9845 -52.5007,56.6451 -66.4223,15.2664 -4.6318,-14.126 -15.9945,-0.4189 -24.7771,29.3616 -18.748,66.532 -57.8394,69.5098 -86.2323,7.7453 -19.841,-44.5346 -19.841,-44.5346 -23.2538,9.3946 -1.9159,34.9618 -13.4356,54.6669 -32.4291,54.1696 -16.9942,-0.4448 -40.3315,-26.0647 -51.5421,-56.3685" />
    <path
       id="path871"
       d="m 6199.0829,2338.2042 c -20.3433,-63.5543 -54.86,-82.4644 -56.1952,-31.4819 -1.3611,51.9823 -39.8242,30.9682 -67.0605,-36.7679 -23.5516,-55.6355 -27.4717,-58.7393 -29.4661,-20.7785 -4.7528,66.8985 -56.3946,52.5418 -81.4484,-22.1397 -21.3168,-64.5801 -22.3164,-64.6063 -41.4883,-20.0929 -22.4586,55.431 -46.1625,43.8066 -85.9229,-42.2637 -40.7342,-87.0961 -20.4792,-96.5691 28.3306,-12.2625 34.4432,59.9221 39.3892,62.0523 40.41,23.0656 1.7801,-67.9766 57.4206,-53.5152 87.4463,22.2967 23.5517,55.6356 27.4718,58.7393 29.4662,20.7786 4.9883,-75.8956 80.915,-33.8936 82.8194,46.1837 1.1094,34.0407 3.0825,35.0928 11.8389,6.3121 15.4349,-54.6147 81.0982,-40.8911 94.5224,19.481 10.6871,50.297 12.6602,51.349 39.5674,17.0416 27.9331,-35.281 28.9328,-35.2547 68.9764,1.8062 40.9909,39.0864 40.9909,39.0864 42.64,-23.8921 1.8063,-68.9763 29.1373,-81.2651 58.7131,-26.4721 17.2085,30.461 20.286,27.5404 21.5163,-19.4434 2.6227,-61.9526 30.8749,-71.2161 59.5034,-18.4487 17.2085,30.4609 20.2861,27.5405 21.4902,-18.4438 2.6749,-63.9518 34.2925,-87.1322 73.415,-53.0965 22.4947,19.5956 28.5189,18.7531 29.2256,-8.2377 0.4447,-16.9942 10.8343,-31.7273 22.8302,-31.4131 11.9958,0.3142 16.6276,14.4403 9.1588,32.2507 -7.4425,16.811 -13.0429,39.6723 -13.3047,49.6688 -0.2618,9.9966 -13.4667,17.6536 -30.4609,17.2086 -15.9945,-0.4191 -29.7279,-10.7818 -29.44,-21.7782 0.3143,-11.9959 -8.578,-16.2301 -19.7575,-9.5204 -11.1795,6.7096 -20.8832,33.4647 -21.5899,60.4556 -1.4135,53.9814 -20.6165,61.4813 -56.6353,23.5254 -18.496,-19.4908 -23.5991,-15.623 -24.3844,14.3666 -1.3088,49.9829 -114.7101,102.0323 -147.8085,67.1539 -32.1248,-33.8526 -53.2748,-28.4042 -54.4527,16.5803 -1.5707,59.9794 -40.2431,46.9627 -62.4549,-21.6423" />
    <path
       id="path873"
       d="m 7457.1521,2276.7362 c -18.7055,-11.4936 -34.1502,-32.9052 -33.7576,-47.9001 0.8114,-30.9894 -41.6502,-52.1081 -107.6276,-53.8359 -24.9914,-0.6541 -56.6403,-14.4876 -70.1904,-31.8483 -14.5237,-18.3865 -58.1945,-31.5341 -113.1756,-32.9738 -47.9836,-1.2566 -83.7619,-10.1962 -77.5283,-19.036 15.6231,-23.5992 165.31,-9.676 195.6187,17.1265 14.6808,12.3886 59.2464,29.5611 102.0223,38.6839 52.7201,11.384 82.2125,31.1628 96.3435,64.5441 23.5255,56.6353 137.2509,68.6164 203.5112,21.3346 21.4116,-15.4448 73.7342,-27.0791 115.7197,-25.9797 69.9761,1.8324 78.1304,-3.956 90.5402,-57.6497 7.8615,-32.8054 21.5637,-59.4558 31.5603,-59.1941 20.9929,0.5495 -2.5915,98.9662 -31.5243,134.2208 -11.3627,13.7072 -53.6362,23.604 -94.6222,22.5308 -39.9862,-1.0471 -91.3091,10.6135 -112.7207,26.0582 -45.8746,32.8104 -143.9719,35.2434 -194.1692,3.9187" />
    <path
       id="path875"
       d="m 5265.4169,1641.8437 c -11.6294,-14.3093 -29.4449,-59.7914 -41.3934,-100.1179 -38.5564,-132.0545 -83.2268,-145.2283 -105.2044,-31.7648 -12.855,70.6877 -54.4479,54.5934 -77.2666,-29.0326 -41.9792,-154.1517 -80.1495,-148.1488 -102.4624,16.3234 -14.6398,100.6514 -68.6,60.2249 -126.5999,-93.346 -29,-76.7853 -30.9469,-78.837 -52.0656,-36.3754 -30.6917,64.2187 -61.4454,54.4103 -118.0431,-38.1029 -27.8382,-44.7442 -43.8901,-81.1767 -34.8931,-80.9412 21.9925,0.5761 71.352,63.8897 87.1159,111.3186 12.0007,38.3272 14.0263,37.38 38.1701,-6.0028 38.8721,-71.0068 61.5762,-59.4086 111.574,55.9397 56.5764,131.5262 73.5181,133.9705 84.709,12.2217 12.6618,-139.7165 64.6439,-138.3553 123.9837,2.2462 37.709,88.0173 46.4441,98.2496 48.5955,54.2907 8.4799,-132.8235 129.2862,-85.645 152.4814,60.012 22.3001,141.6323 57.8902,119.5564 98.7467,-65.4375 47.509,-209.8282 60.4735,-246.5014 69.3443,-203.2543 29.5073,133.8182 -102.6698,444.4646 -156.7921,372.0231" />
    <path
       id="path877"
       d="m 6580.011,1620.0308 c 0.3923,-14.9949 -12.001,-38.3272 -28.6287,-52.7675 -15.6281,-14.4141 -28.8903,-42.7709 -28.3666,-62.7641 0.5493,-20.9928 -7.0027,-38.1964 -16.9992,-38.4581 -9.9965,-0.2619 -26.3625,-24.6986 -34.6003,-53.9243 l -16.5803,-54.4526 -23.5369,58.4038 c -12.8335,31.6749 -28.9278,73.268 -35.4231,92.1043 -30.2417,85.2376 -81.8885,32.8678 -137.4701,-136.6454 -18.5012,-57.5039 -52.6154,-15.3825 -68.2287,84.2429 -19.031,115.5415 -53.6787,101.6297 -124.7003,-51.2819 -58.7328,-125.5805 -96.0131,-153.5659 -98.1333,-72.5936 -1.7277,65.9774 -45.8173,68.8241 -93.1776,5.5628 -47.3864,-62.2618 -55.6765,-89.4881 -27.6861,-88.7552 8.9968,0.2352 26.3886,23.6989 37.6778,51.0037 28.2621,66.7627 58.3041,65.5487 68.1075,-3.2182 12.3264,-88.7077 61.6548,-62.4074 120.3876,63.173 56.812,122.5292 90.146,148.4105 92.1615,71.437 3.5078,-133.9541 103.7353,-141.3329 143.3437,-11.2515 27.66,89.7547 60.0204,114.6104 71.6401,52.8934 26.7354,-142.3489 78.8173,-182.9995 112.3182,-87.0897 12.1317,33.329 28.419,60.7648 36.4163,60.9742 8.9969,0.2351 15.6542,13.4143 15.2616,28.4093 -0.3923,14.9948 16.7112,49.4543 37.0233,75.9951 l 38.756,48.031 4.2931,-163.9438 c 3.565,-97.9402 14.4204,-168.6804 27.6254,-176.3373 18.2817,-10.5251 8.8269,312.3382 -11.104,385.8415 -5.5218,19.8623 -60.9529,-2.5963 -60.3769,-24.5888" />
    <path
       id="path879"
       d="m 7794.6458,1591.3278 c -117.6603,-129.1242 -125.5528,-133.3323 -138.7267,-88.6618 -13.2523,47.6694 -51.3964,52.6727 -67.265,9.2424 -5.5529,-17.1513 -35.469,-58.9487 -66.5681,-93.7748 l -55.3836,-62.4711 -15.142,81.6316 c -20.9781,113.4898 -41.0498,115.9652 -126.4805,16.6949 -67.0131,-76.7805 -76.8788,-82.0406 -95.7103,-50.5228 -18.8314,31.5178 -26.7502,28.3094 -88.1056,-35.3185 -71.1163,-72.8865 -105.3502,-140.8059 -71.3618,-139.916 10.9962,0.2876 25.5722,16.6752 32.0725,35.8519 20.3956,61.555 98.6928,127.6272 111.5264,95.9523 12.7812,-29.6755 72.9962,-37.1019 72.2633,-9.1114 -0.4714,17.9938 110.2177,145.9351 126.2122,146.354 5.9979,0.1567 10.52,-19.7315 11.1745,-44.7229 3.0153,-76.9475 26.526,-134.3516 56.5157,-133.5663 14.9949,0.3923 35.4641,20.9355 44.8063,46.1887 25.1583,70.6827 95.7201,126.549 111.7358,87.955 17.1202,-42.5664 62.9474,-35.3642 76.712,12.0122 6.4216,22.1757 23.9443,40.6408 38.9392,41.0334 14.9948,0.3923 45.3559,25.1959 67.589,54.788 l 39.6247,53.0554 4.895,-186.9358 c 2.7225,-103.9644 14.2585,-200.6956 24.6739,-216.4284 31.2462,-47.1982 42.3521,-12.8957 19.4222,60.5293 -11.9909,37.699 -23.5009,133.4305 -25.5688,212.4034 -4.3715,166.9428 -18.8117,183.5706 -87.8503,107.7373" />
    <path
       id="path881"
       d="m 2736.0957,1553.3317 c -40.2791,-28.0639 -73.3251,-64.9417 -72.8801,-81.9358 2.4082,-91.9684 -192.0375,-192.0928 -233.9346,-120.1649 -19.8312,31.4917 -22.8302,31.4131 -57.9802,-1.5182 -44.8847,-43.1897 -60.8531,-44.6082 -102.7552,-10.6935 -27.5929,22.2854 -42.5092,18.8938 -99.4422,-22.6109 -53.9865,-39.4266 -58.7492,-48.5544 -25.7604,-47.6906 21.9925,0.5761 50.616,15.3302 64.1923,31.6912 21.2857,27.5666 27.3099,26.724 52.1131,-3.6371 24.8556,-32.3604 30.8535,-32.2034 86.0229,0.2519 50.2235,30.3252 62.1931,31.6389 82.8406,7.1709 55.6569,-62.5644 239.0279,40.2709 263.2438,146.9414 6.2646,28.1736 38.3372,64.0254 74.8533,82.9879 80.8986,43.1324 103.5455,18.7169 140.9319,-148.3617 14.6972,-64.6374 35.0518,-116.1223 45.0483,-115.8606 9.9966,0.2619 13.5765,16.3611 8.0808,35.2237 -6.4953,18.8364 -17.9055,72.5561 -26.1073,118.3571 -30.3365,165.2626 -90.3894,204.7041 -198.467,129.8492" />
    <path
       id="path885"
       d="m 3906.5773,1498.3789 c -116.4888,-21.0565 -125.3547,-26.2904 -138.7789,-86.6625 -14.3455,-63.3973 -16.3447,-63.4497 -207.546,-96.466 -106.5445,-18.7954 -192.965,-42.0657 -192.7033,-52.0622 0.2876,-10.9963 20.3859,-14.4714 45.2203,-7.819 24.8343,6.6524 98.521,19.5857 164.289,29.3106 159.4478,23.1818 208.881,45.4834 207.6506,92.4673 -1.4397,54.9812 27.1839,69.7356 197.4708,99.2032 181.2047,32.7546 179.1792,33.702 182.242,-83.2579 1.3612,-51.9821 11.7978,-106.7278 23.239,-123.434 23.9345,-35.3856 25.2892,65.6846 2.155,185.1198 -16.2203,84.6044 -36.3183,88.0795 -283.2385,43.6007" />
    <path
       id="path887"
       d="M71940.234375,15261.137695 C71928.234375,15241.137695 72892.234375,15224.137695 74828.234375,15208.137695 C76504.234375,15195.137695 77943.234375,15181.137695 79336.234375,15165.137695 C80138.234375,15157.137695 80470.234375,15159.137695 80460.234375,15174.137695 C80451.234375,15189.137695 80194.234375,15196.137695 79663.234375,15197.137695 C79231.234375,15198.137695 78716.234375,15203.137695 78518.234375,15208.137695 C78320.234375,15213.137695 77443.234375,15222.137695 76568.234375,15228.137695 C73308.234375,15249.137695 72096.234375,15260.137695 72024.234375,15269.137695 C71984.234375,15274.137695 71946.234375,15270.137695 71940.234375,15261.137695 " />
    <path
       id="path891"
       d="m 2850.9101,652.53681 c -23.928,-117.66668 -65.0809,-188.76831 -104.3816,-177.79332 -20.1503,5.4744 -43.0115,-0.12595 -50.6946,-12.33125 -9.5516,-17.25595 -18.5747,-16.49188 -31.0941,3.18714 -13.5453,20.65251 -25.5673,21.33804 -56.0593,1.53307 -45.2251,-30.19421 -61.9264,-3.62229 -64.7798,105.34036 -2.5914,98.96607 -41.9757,74.92688 -72.9014,-42.92305 -22.7924,-84.62564 -29.5806,-92.80612 -51.3587,-63.36613 -23.8036,30.38732 -27.8024,30.2826 -52.0346,0.63811 -23.2065,-30.61797 -28.2309,-29.74919 -54.06,1.58542 -26.855,32.30808 -28.8543,32.25574 -54.955,-2.43939 -23.2065,-30.61797 -28.1786,-31.74851 -38.8558,-6.01919 -17.1201,42.56644 -60.0006,37.4422 -87.7342,-11.30049 -13.4194,-22.35893 -15.9471,-40.43129 -4.9508,-40.14335 9.9965,0.26176 23.7561,9.62516 30.4658,20.80463 6.6835,12.17912 26.7289,10.70336 52.113,-3.63708 32.5387,-20.15515 43.5089,-18.86753 58.8489,6.54272 16.2874,27.43576 20.2861,27.54047 37.987,0.99473 16.6489,-24.57261 27.6713,-25.28432 60.1103,-3.42767 23.5992,15.62311 40.541,18.06743 40.8551,6.07154 1.4396,-54.98115 60.2412,-8.42596 85.2686,67.25513 25.8963,80.70553 27.8433,82.75721 31.3348,25.82909 4.1196,-80.91989 32.105,-118.20009 74.6714,-101.07997 18.7841,8.49462 45.8796,5.20277 60.1888,-6.42664 18.3866,-14.52367 29.3827,-14.23573 37.987,0.99472 7.6833,12.2053 32.5699,16.85836 57.7184,11.51485 37.2229,-8.02837 51.8514,6.35947 94.4799,97.5066 l 51.2068,107.37723 2.832,-69.94984 c 4.1982,-83.91886 25.1812,-159.39545 43.175,-158.92426 11.9958,0.31413 -15.389,205.66763 -37.1883,274.12045 -13.1478,43.6708 -47.6907,25.76043 -58.1946,-31.53416" />
    <path
       id="path893"
       d="m 4053.2443,577.51528 c -30.978,-115.8506 -104.884,-196.81298 -107.0043,-115.84073 -1.7014,64.97772 -38.7674,67.00814 -105.2258,7.24799 -63.5641,-55.683 -63.5641,-55.683 -71.7136,-11.88132 -10.6459,62.74282 -54.8665,70.58795 -115.5887,20.98143 -61.6958,-50.63235 -86.5825,-55.28541 -87.6295,-15.29911 -0.4191,15.99451 -8.8874,33.77893 -19.0148,38.51545 -20.3334,12.472 -180.1052,-74.74022 -179.5032,-97.73234 0.7066,-26.99075 49.3758,-13.71219 99.3113,27.60913 58.7491,48.55451 78.6638,52.07702 79.6846,13.09039 1.335,-50.98253 43.4777,-55.88104 101.3057,-10.35167 64.6947,50.71088 77.638,53.0505 78.528,19.06215 2.9106,-72.94881 38.1604,-82.0292 107.7224,-26.18914 81.3224,65.1511 87.268,67.30747 85.447,22.24438 -6.0913,-111.19756 117.9023,-32.92497 152.5386,96.0259 28.3194,102.77652 44.7589,86.20118 57.4468,-54.51491 5.4121,-53.87678 19.4024,-91.52346 36.5536,-97.07641 18.1509,-5.52675 22.0187,-0.42376 10.5512,17.28213 -8.3637,13.78579 -23.0869,79.42287 -30.8126,145.24319 -20.1042,156.52737 -55.3279,164.60809 -92.5967,21.58349" />
    <path
       id="path895"
       d="m 5314.0476,654.49031 c -6.7883,-8.18051 -12.2102,-30.33003 -11.6867,-50.32318 1.9894,-75.97395 -106.4857,-173.84704 -151.4916,-136.01218 -49.1354,42.72843 -83.1236,41.83841 -128.982,-2.37717 -34.1503,-32.90523 -40.1483,-33.0623 -93.9677,-2.46064 -55.8188,30.5493 -60.8172,30.41842 -108.7794,-9.85089 l -49.9355,-41.32131 -23.0396,39.4104 c -12.5979,22.67798 -29.0635,40.25299 -38.0605,40.0174 -30.9894,-0.81149 -142.4111,-100.76242 -124.1294,-111.28747 11.1533,-5.71 42.8021,8.12322 72.1635,32.90029 50.9352,41.3475 52.9083,42.39951 80.8675,6.11898 26.9074,-34.30741 32.9054,-34.15035 86.1015,-2.74709 52.1966,31.37711 62.1931,31.63888 108.9103,4.85261 47.7168,-26.76009 54.6883,-25.5772 105.6233,15.7703 l 53.8294,45.42465 45.0582,-39.83416 c 23.568,-21.39038 52.0296,-38.65126 62.0262,-38.3895 28.99,0.75914 125.4742,136.33126 125.4006,177.34338 1.5854,54.06003 36.7469,-28.04769 40.4476,-92.97307 3.4129,-53.92914 34.9995,-114.12292 51.5748,-97.6834 4.8412,6.12883 0.7951,46.03659 -10.3532,89.75975 -11.1222,42.72349 -25.7146,103.36229 -32.4979,133.19495 -13.4094,53.66737 -32.7692,67.16522 -59.0794,40.46735" />
    <path
       id="path897"
       d="m 7735.6732,655.30573 c -6.9017,-8.08493 -12.5592,-36.15614 -12.2172,-64.15405 0.5743,-46.99649 -1.4134,-48.02085 -26.8269,-14.32881 -19.3162,25.76594 -31.3642,29.61904 -41.168,13.49806 -7.8406,-13.09677 -23.7783,-18.29187 -35.8629,-11.439 -26.2057,16.6811 -54.6416,-29.66977 -54.9451,-86.67773 0.3665,-29.99776 -8.4985,-41.10689 -27.5826,-34.33953 -17.0842,6.79178 -33.9241,-6.41494 -41.6181,-31.51081 -15.3636,-52.19159 -69.3351,-54.85116 -69.9581,-3.85496 -1.0996,89.99328 -48.6459,134.41572 -69.8013,65.15209 -9.6205,-31.11984 -90.3456,-54.10778 -90.6999,-25.10995 -0.5132,41.99686 -154.0862,6.11799 -196.4478,-46.40346 -34.472,-43.42439 -38.3129,-56.47228 -15.3147,-56.1913 16.9988,0.20765 37.8506,12.46335 46.6667,27.57219 16.6445,29.20552 145.3049,57.7795 145.6104,32.78136 0.2201,-17.99865 82.1405,-10.9973 113.8815,10.39207 12.9013,8.15822 28.0346,-2.6577 35.3028,-24.57053 19.695,-56.76363 75.8618,-70.07843 111.3216,-25.64191 16.7422,21.20613 41.5815,34.51058 54.6293,30.6697 14.0601,-4.82858 24.8883,9.30476 24.6195,31.30311 -0.269,21.99836 22.3385,54.27696 49.1167,72.60548 27.7779,18.34073 49.703,24.60906 49.8496,12.60996 0.562,-45.99657 58.1912,-15.29023 65.5675,35.80371 l 7.3274,55.09363 3.6717,-54.95924 c 2.3664,-29.97334 13.671,-54.83708 25.6702,-54.69048 13.9989,0.17107 17.7787,18.21856 10.4493,45.13103 -7.3048,24.91261 -13.7442,60.83663 -13.9764,79.8352 -0.4397,35.99732 -22.5603,45.7278 -47.2652,21.42417" />
    <path
       id="path899"
       d="m 7810.3199,590.09149 c 7.4393,-35.91179 14.2696,-103.83341 14.8561,-151.82983 0.6108,-49.99627 10.0744,-87.88348 23.0734,-87.72466 33.9974,0.41538 10.5171,285.14977 -23.6148,295.73357 -22.0838,6.73071 -24.937,-5.30505 -14.3147,-56.17908" />
    <path
       id="path901"
       d="m 6572.8062,589.40969 c -7.6832,-12.20532 -21.5737,-16.57041 -32.727,-10.86043 -10.1536,5.73618 -23.9394,-2.62755 -29.4661,-20.77845 -6.5526,-17.1774 -19.3125,-26.51463 -28.4404,-21.75193 -9.1539,5.76234 -22.0448,1.42342 -27.7548,-9.72987 -6.7359,-10.17981 -24.6249,-14.64963 -41.7761,-9.0967 -16.1517,5.57913 -29.0425,1.24019 -28.7284,-10.7557 0.3143,-11.99589 -12.5504,-17.33448 -29.7279,-10.78187 -19.1767,6.50023 -29.9636,-1.78498 -29.4138,-22.77778 0.4713,-17.99383 -7.2643,-28.19982 -18.4176,-22.48983 -10.1799,6.73584 -26.9122,-3.70574 -37.4111,-22.98718 -15.2092,-30.40856 -23.2589,-28.61865 -70.5257,19.16042 l -52.4485,54.64578 -52.6726,-51.39642 -51.673,-51.37024 -50.3444,50.69951 c -38.0344,39.01775 -53.1863,44.62304 -64.6849,25.31542 -8.6042,-15.23045 -21.3119,-26.56698 -28.3356,-25.75057 -7.0238,0.81643 -30.5706,-16.806 -51.9871,-39.37435 -44.7801,-47.18838 -8.5831,-54.24326 47.2718,-9.76591 36.2543,28.95895 91.4187,23.40108 116.3528,-11.95834 7.2857,-10.81298 29.3305,-12.23642 50.0877,-2.68978 69.1906,31.82211 121.1466,34.18296 145.9238,4.8215 22.6731,-25.41521 32.6697,-25.15344 87.8652,6.30219 34.5168,18.91003 67.0866,35.76838 72.0325,37.89859 5.9719,1.15672 27.7286,10.72952 49.4856,20.30234 181.9997,78.79119 168.0308,77.42505 169.5753,18.44528 0.7852,-29.98972 11.7503,-66.71527 22.192,-83.44768 14.5449,-20.62632 15.785,8.41609 4.6416,90.1524 -17.4767,132.58795 -20.7113,141.50633 -38.8933,110.0196" />
  </g>
</svg>
