<?xml version="1.0" standalone="yes"?>
<!DOCTYPE svg PUBLIC "-//W3C//DTD SVG 20010904//EN" "http://www.w3.org/TR/2001/REC-SVG-20010904/DTD/svg10.dtd">
<svg xmlns="http://www.w3.org/2000/svg" height="84.000000pt" style="zoom: 4;" cursor="crosshair" width="300.000000pt" version="1.0" preserveAspectRatio="xMidYMid meet" viewBox="0 0 300.000000 84.000000"><metadata>Created by potrace 1.10, written by Peter Selinger 2001-2011</metadata><g transform="translate(0.000000,84.000000) scale(0.100000,-0.100000)" fill="#000000" stroke="none"><path d="M345,785 c-49,-25 -111,-48 -137,-51 c-27,-4 -48,-11 -48,-15 c0,-20 133,21 220,68 l65,34 l3,-48 c2,-26 8,-52 14,-58 c8,-7 9,-5 4,8 c-3,10 -6,39 -6,63 c0,29 -4,44 -12,44 c-7,-1 -53,-21 -103,-45 "></path><path d="M795 789 c-44 -23 -105 -51 -135 -61 -51 -17 -52 -18 -15 -14 22 3 84 28 138 56 93 49 133 58 122 27 -3 -7 -1 -31 4 -52 9 -38 10 -38 8 20 -3 77 -15 80 -122 24z"></path><path d="M1208 812 c-6 -14 -86 -72 -99 -72 -8 0 -23 -7 -33 -15 -30 -22 3 -18 39 6 17 10 39 23 50 28 11 5 28 18 39 29 l18 21 26 -25 c15 -13 41 -31 59 -39 18 -9 35 -20 38 -25 3 -6 12 -10 18 -10 13 0 -33 39 -47 40 -5 0 -28 16 -52 35 -45 37 -50 40 -56 27z"></path><path d="M1602 785 c-59 -33 -98 -65 -81 -65 8 0 26 10 40 23 37 32 66 47 94 47 27 0 97 -34 116 -56 6 -8 19 -14 28 -13 11 0 10 3 -6 11 -13 6 -23 15 -23 19 0 8 -65 41 -105 53 -12 3 -37 -4 -63 -19z"></path><path d="M2090 780 c-14 -11 -33 -17 -42 -14 -10 3 -34 -6 -55 -20 -21 -14 -32 -26 -24 -26 7 0 26 10 43 21 25 18 32 19 39 8 6 -9 12 -10 17 -4 14 20 65 47 71 39 13 -18 50 -34 56 -24 4 6 10 6 18 0 48 -41 61 -50 65 -45 3 3 3 6 1 8 -50 40 -80 57 -89 52 -6 -4 -22 0 -35 9 -31 20 -34 20 -65 -4z"></path><path d="M2690 781 c-19 -9 -47 -25 -63 -35 -22 -15 -30 -16 -42 -6 -12 10 -21 10 -45 0 -23 -10 -33 -10 -44 -1 -11 10 -22 9 -46 -4 -18 -9 -29 -19 -26 -22 3 -3 17 2 31 11 20 13 28 14 45 4 16 -10 24 -10 40 0 14 9 26 9 43 1 20 -9 31 -7 63 14 22 13 49 27 62 31 20 7 22 4 22 -28 0 -19 4 -37 9 -40 10 -7 3 75 -8 86 -3 3 -22 -1 -41 -11z"></path><path d="M1332 538 c-8 -18 -11 -19 -11 -5 -1 9 -5 17 -10 17 -5 0 -12 -8 -15 -17 -3 -10 -13 -29 -21 -43 -11 -18 -15 -20 -15 -8 0 9 -5 20 -11 24 -8 4 -9 -1 -4 -17 12 -41 23 -42 40 -5 14 29 20 34 31 25 11 -9 16 -6 23 12 8 19 10 10 11 -41 0 -36 4 -71 9 -78 4 -8 6 21 3 65 -5 86 -13 105 -30 71z"></path><path d="M415,479 c-24,-46 -22,-45 -44,-18 l-19,24 l-18,-38 c-20,-42 -30,-46 -39,-17 c-8,25 -32,25 -70,0 c-16,-11 -39,-20 -50,-21 c-17,-1 -17,-2 -3,-6 c10,-2 36,6 59,19 l41,23 l18,-25 c15,-20 21,-22 34,-11 c8,7 18,22 22,34 c6,20 7,20 20,3 c17,-24 41,-14 54,20 c13,33 21,27 27,-23 c3,-21 10,-42 15,-48 c8,-7 9,-4 4,8 c-3,10 -6,31 -6,46 c0,15 -6,36 -14,46 c-13,18 -14,17 -31,-16 "></path><path d="M1165 483 c-10 -15 -24 -32 -32 -36 -7 -4 -13 -16 -14 -25 0 -12 -3 -9 -10 7 -10 27 -22 20 -34 -18 -5 -16 -4 -21 4 -17 6 4 11 15 12 24 0 11 4 9 10 -8 l10 -25 15 28 c8 15 18 27 23 27 4 0 14 12 21 28 l13 27 8 -25 7 -25 8 25 8 25 7 -25 c6 -22 7 -23 14 -6 8 19 -11 40 -28 29 -5 -3 -13 0 -17 6 -5 8 -13 3 -25 -16z"></path><path d="M1762 478 c-7 -27 -14 -34 -38 -36 -16 -2 -36 -10 -45 -18 -15 -14 -18 -12 -27 15 -12 34 -23 38 -42 16 -7 -8 -20 -15 -29 -15 -9 0 -29 -9 -46 -20 -19 -13 -24 -20 -14 -20 9 0 22 6 28 14 6 8 22 16 34 19 12 2 29 8 38 11 12 5 18 0 23 -18 7 -29 27 -34 46 -12 6 8 23 16 38 18 19 2 32 13 44 38 18 38 22 34 33 -32 3 -21 9 -40 14 -42 4 -3 3 20 -3 52 -14 68 -40 83 -54 30z"></path><path d="M715 478 c-11 -6 -24 -16 -30 -22 -5 -6 -26 -21 -45 -34 -19 -12 -29 -22 -22 -22 7 0 37 18 66 40 62 47 95 50 142 15 18 -14 37 -25 42 -25 6 0 12 -7 16 -15 3 -8 11 -15 17 -15 7 0 5 8 -6 20 -10 11 -22 20 -26 20 -4 0 -20 11 -35 25 -29 27 -83 33 -119 13z"></path><path d="M2647 474 c-4 -4 -7 -19 -7 -33 0 -21 -2 -23 -10 -11 -9 13 -12 12 -25 -4 -13 -17 -15 -18 -21 -2 -6 15 -7 15 -20 -1 -13 -17 -13 -17 -14 1 0 16 -2 16 -16 5 -13 -10 -17 -10 -25 2 -8 12 -11 11 -20 -5 -9 -15 -13 -16 -20 -5 -7 11 -12 10 -26 -5 -14 -16 -14 -17 -1 -7 11 8 18 9 23 1 5 -8 11 -7 22 1 12 10 17 10 25 -2 7 -11 11 -11 15 -1 4 10 8 10 20 1 11 -10 16 -10 23 0 6 11 9 11 13 0 4 -11 9 -10 21 5 14 17 16 18 16 3 0 -29 19 -19 29 16 9 31 9 31 10 5 1 -15 6 -30 11 -33 7 -4 8 3 4 22 -9 38 -19 55 -27 47z"></path><path d="M2716 449 c-5 -27 -8 -30 -21 -19 -8 7 -15 8 -15 2 0 -5 7 -15 16 -22 13 -11 16 -10 21 10 6 22 6 22 20 -6 7 -16 11 -21 8 -11 -3 10 -5 32 -5 48 0 39 -16 37 -24 -2z"></path><path d="M2162 436 c-14 -18 -22 -22 -30 -14 -8 8 -19 7 -41 -2 -21 -8 -35 -9 -44 -3 -8 7 -24 6 -47 -2 -34 -12 -33 -12 32 -11 37 1 70 5 74 9 4 4 14 1 22 -5 12 -10 19 -7 38 17 l24 30 0 -27 c0 -33 10 -35 35 -8 23 25 35 25 35 1 0 -11 5 -23 10 -26 7 -4 8 3 4 22 -10 44 -21 48 -48 18 l-26 -28 0 27 c0 33 -13 33 -38 2z"></path><path d="M1616 185 c-3 -9 -6 -33 -6 -52 0 -31 -12 -40 -16 -12 -1 5 -2 14 -3 19 -3 27 -41 -19 -41 -50 0 -24 20 -7 21 18 l1 27 11 -27 c19 -47 30 -34 40 47 3 20 5 14 6 -17 0 -26 6 -50 11 -53 8 -5 9 10 4 47 -7 58 -18 79 -28 53z"></path><path d="M1160 145 c-24 -24 -57 -51 -74 -59 -21 -10 -25 -16 -13 -16 10 0 42 22 71 50 29 28 56 50 59 50 3 0 7 -21 9 -47 2 -27 8 -48 16 -51 7 -2 38 22 70 53 l57 57 3 -49 c2 -26 8 -52 14 -58 8 -7 9 -5 4 8 -3 10 -6 39 -6 63 0 27 -4 44 -12 44 -6 0 -36 -25 -65 -56 -29 -30 -57 -52 -63 -49 -6 3 -9 23 -9 43 3 77 -1 78 -61 17z"></path><path d="M1656 174 c-3 -9 -6 -23 -5 -32 1 -10 4 -7 9 8 7 23 8 22 9 -10 2 -42 17 -73 25 -50 13 42 14 44 15 23 1 -13 6 -23 11 -23 15 0 12 26 -5 40 -12 10 -16 8 -24 -11 -8 -20 -10 -17 -10 24 -1 46 -13 62 -25 31z"></path><path d="M1765 153 c-9 -51 -13 -62 -14 -36 -1 22 -21 44 -21 23 0 -17 20 -50 30 -50 5 0 11 17 13 38 l4 37 1 -37 c1 -21 7 -38 13 -38 8 0 10 13 5 38 -3 20 -6 43 -6 50 0 28 -20 9 -25 -25z"></path><path d="M1805 148 c4 -24 12 -50 17 -58 8 -12 8 -11 4 3 -3 10 -6 36 -6 58 0 21 -5 39 -11 39 -7 0 -8 -14 -4 -42z"></path><path d="M858 170 c-9 -6 -22 -26 -28 -45 -16 -49 -45 -47 -57 2 -14 60 -38 56 -91 -14 -9 -13 -27 -24 -39 -26 -27 -4 -43 -17 -20 -17 34 0 65 20 86 55 25 44 43 41 54 -8 5 -19 14 -38 22 -40 20 -8 52 20 58 51 4 18 14 31 26 35 16 4 21 -2 26 -32 3 -20 11 -43 16 -51 11 -17 3 38 -12 78 -9 24 -16 26 -41 12z"></path><path d="M376 130 c-41 -45 -44 -47 -61 -23 -12 16 -14 16 -40 -1 -25 -17 -27 -17 -39 0 -12 16 -15 16 -44 -2 -18 -10 -32 -22 -32 -27 0 -5 13 1 29 13 28 19 30 19 40 3 9 -17 12 -17 40 -1 28 16 30 15 44 -5 13 -21 15 -20 66 28 42 39 54 46 62 34 5 -7 9 -23 9 -34 0 -11 5 -27 10 -35 11 -15 10 -12 -6 68 -7 34 -37 27 -78 -18z"></path><path d="M1538 144 c-17 -26 -27 -64 -18 -64 6 0 10 6 10 14 0 8 5 16 11 18 6 2 10 13 7 23 -2 12 -6 16 -10 9z"></path></g></svg>