<?xml version="1.0" encoding="UTF-8" standalone="no"?>
<svg
   xmlns:dc="http://purl.org/dc/elements/1.1/"
   xmlns:cc="http://creativecommons.org/ns#"
   xmlns:rdf="http://www.w3.org/1999/02/22-rdf-syntax-ns#"
   xmlns:svg="http://www.w3.org/2000/svg"
   xmlns="http://www.w3.org/2000/svg"
   xmlns:sodipodi="http://sodipodi.sourceforge.net/DTD/sodipodi-0.dtd"
   xmlns:inkscape="http://www.inkscape.org/namespaces/inkscape"
   sodipodi:docname="waves.svg"
   inkscape:version="1.0 (4035a4f, 2020-05-01)"
   id="svg4526"
   version="1.1"
   viewBox="0 0 125.57749 67.33577"
   height="67.33577mm"
   width="125.57749mm">
  <defs
     id="defs4520" />
  <sodipodi:namedview
     inkscape:window-maximized="0"
     inkscape:window-y="23"
     inkscape:window-x="0"
     inkscape:window-height="1174"
     inkscape:window-width="1252"
     fit-margin-bottom="0"
     fit-margin-right="0"
     fit-margin-left="0"
     fit-margin-top="0"
     showgrid="false"
     inkscape:document-rotation="0"
     inkscape:current-layer="layer1"
     inkscape:document-units="mm"
     inkscape:cy="127.24871"
     inkscape:cx="237.31179"
     inkscape:zoom="0.35"
     inkscape:pageshadow="2"
     inkscape:pageopacity="0.0"
     borderopacity="1.0"
     bordercolor="#666666"
     pagecolor="#ffffff"
     id="base" />
  <metadata
     id="metadata4523">
    <rdf:RDF>
      <cc:Work
         rdf:about="">
        <dc:format>image/svg+xml</dc:format>
        <dc:type
           rdf:resource="http://purl.org/dc/dcmitype/StillImage" />
        <dc:title></dc:title>
      </cc:Work>
    </rdf:RDF>
  </metadata>
  <g
     transform="translate(-43.044588,-114.49878)"
     id="layer1"
     inkscape:groupmode="layer"
     inkscape:label="Layer 1">
    <path
       style="stroke-width:0.0176389"
       id="path837"
       d="m 47.569141,116.94641 c -1.611688,1.11854 -3.172325,2.16517 -3.467929,2.33172 -0.277969,0.16608 -0.412568,0.41663 -0.285905,0.53683 0.12666,0.1202 1.708627,-0.78583 3.511504,-2.01525 4.004852,-2.71632 3.528304,-2.72149 7.798798,-0.0101 1.937592,1.2197 3.620012,2.12847 3.723039,2.0199 0.257567,-0.27142 0.527601,-0.0667 -3.705783,-2.70851 -4.304835,-2.67517 -3.881185,-2.66862 -7.573724,-0.15457" />
    <path
       style="stroke-width:0.0176389"
       id="path859"
       d="m 43.826802,132.36242 c 0.03241,0.56379 0.105248,0.65011 0.325703,0.30908 0.219531,-0.37629 0.326712,-0.32616 0.551236,0.16202 0.245387,0.61114 0.280654,0.61022 0.739653,-0.0547 0.272431,-0.37768 0.497963,-0.52475 0.503504,-0.31315 0.01755,0.67005 1.908416,0.77934 2.385513,0.13163 0.289141,-0.41341 0.42928,-0.45237 0.438051,-0.11734 0.0074,0.28212 0.27465,0.38099 0.694608,0.24648 0.385614,-0.0983 0.758673,-0.002 0.870011,0.2066 0.112723,0.26172 0.374446,0.149 0.715559,-0.30105 0.460387,-0.61198 0.530918,-0.61383 0.544311,-0.10248 0.01847,0.70531 0.58549,0.79633 0.832898,0.13699 0.131828,-0.35635 0.167093,-0.35727 0.193963,-0.005 0.0241,0.2464 0.293668,0.43344 0.575793,0.42605 0.299758,-0.008 0.523907,-0.20781 0.517442,-0.45467 0.0093,-0.31786 0.07939,-0.33734 0.263569,-0.0422 0.293668,0.43343 2.127486,0.38541 2.821256,-0.0739 0.243166,-0.14753 0.437589,-0.13498 0.442205,0.0414 0.0051,0.19396 0.379063,0.32532 0.837517,0.31332 0.670049,-0.0175 0.807415,-0.1623 0.652041,-0.70523 -0.115494,-0.36752 -0.38599,-0.58982 -0.630539,-0.49519 -0.24409,0.11226 -0.617149,0.0162 -0.834284,-0.18989 -0.289514,-0.27474 -0.446365,-0.20005 -0.611609,0.22775 -0.163862,0.48071 -0.321635,0.52013 -0.717869,0.21289 -0.396696,-0.32486 -0.606904,-0.26642 -0.998609,0.27318 -0.442291,0.62916 -0.49519,0.63054 -0.509965,0.0663 -0.03656,-0.72248 -0.426335,-0.78286 -1.010152,-0.16764 -0.326251,0.34379 -0.414877,0.32847 -0.424111,-0.0242 -0.0069,-0.2645 -0.238924,-0.36429 -0.518279,-0.25111 -0.296987,0.11365 -0.63432,0.0343 -0.763293,-0.1741 -0.16562,-0.26032 -0.410172,-0.16569 -0.71602,0.28344 -0.272427,0.37768 -0.464081,0.47093 -0.471008,0.20643 -0.0069,-0.26449 -0.256094,-0.34619 -0.676051,-0.21168 -0.367055,0.13313 -0.792552,0.056 -0.939618,-0.16949 -0.202271,-0.31231 -0.394848,-0.25433 -0.700696,0.1948 -0.391243,0.55724 -0.426509,0.55816 -0.670973,-0.0177 -0.244927,-0.59351 -0.297826,-0.59213 -0.739195,0.0723 -0.425122,0.61106 -0.495653,0.61291 -0.509042,0.10156 -0.02032,-0.77585 -0.584569,-0.76107 -1.022244,0.0444 -0.33742,0.59112 -0.355053,0.59158 -0.37029,0.01 -0.02641,-0.33456 -0.263018,-0.61068 -0.562779,-0.60284 -0.317389,0.008 -0.520674,0.33125 -0.508207,0.80733" />
    <path
       style="stroke-width:0.0176389"
       id="path863"
       d="m 47.041329,147.06817 c -1.907289,1.28509 -3.625237,2.38877 -3.816889,2.48201 -0.192114,0.0756 -0.240395,0.25333 -0.09564,0.3907 0.127121,0.13783 1.883569,-0.84335 3.912903,-2.18457 l 3.659581,-2.42496 1.88377,1.18582 c 2.028064,1.30555 2.773724,1.48012 2.752023,0.65137 -0.0078,-0.29975 0.144843,-0.53314 0.338806,-0.53821 0.19396,-0.005 0.362352,0.36105 0.373895,0.80187 0.03463,1.32246 0.923112,2.23438 1.596018,1.65212 0.483097,-0.41848 0.554554,-0.38506 0.572099,0.28499 0.01109,0.42318 0.159069,0.68398 0.314996,0.57403 0.381457,-0.25702 0.0383,-1.90666 -0.44564,-2.19395 -0.214824,-0.11789 -0.563326,0.05 -0.801414,0.39153 -0.37407,0.53915 -0.464543,0.45329 -0.759511,-0.70355 -0.391441,-1.47192 -1.180215,-1.94533 -1.451346,-0.84424 -0.157399,0.72756 -0.192662,0.72848 -1.646781,-0.22156 -2.871122,-1.83046 -2.572287,-1.87358 -6.386872,0.6966" />
    <path
       style="stroke-width:0.0176389"
       id="path883"
       d="m 48.785131,161.74754 c -0.372221,0.60968 -0.981523,0.9256 -2.123504,1.1143 -1.581412,0.25316 -3.965802,2.18596 -3.248945,2.60831 0.322469,0.18565 1.253403,-0.6504 1.448375,-1.29072 0.06453,-0.23107 0.902596,-0.57063 1.867783,-0.77235 1.000457,-0.20265 1.976353,-0.66933 2.300757,-1.08365 0.66644,-0.82912 0.981523,-0.9256 0.998607,-0.27318 0.0069,0.26449 0.426795,0.80049 0.913964,1.21121 0.5048,0.41026 0.907499,0.96435 0.914887,1.24648 0.0069,0.26449 0.244462,0.57588 0.52936,0.67429 0.605517,0.21353 1.57827,-1.04709 1.553797,-1.98163 -0.04386,-1.67512 0.874053,-2.33438 1.109109,-0.77013 0.108021,0.7559 0.343249,0.97913 1.121403,1.04697 0.672358,0.0706 1.103856,0.37693 1.347858,0.93518 0.415165,1.03018 0.716771,1.09286 0.692299,0.15832 -0.02124,-0.81111 -1.01875,-1.84369 -1.486989,-1.53146 -0.538307,0.33171 -1.390137,-0.52824 -1.414147,-1.44515 -0.04479,-1.71038 -1.296343,-0.98945 -1.773153,1.01691 -0.445237,1.86438 -1.303333,2.78674 -1.338424,1.44664 -0.01016,-0.38792 -0.323769,-0.90906 -0.68335,-1.16431 -0.359123,-0.23763 -0.849985,-0.78942 -1.108387,-1.22377 -0.555304,-0.99122 -0.960861,-0.9806 -1.6213,0.0777" />
    <path
       style="stroke-width:0.0176389"
       id="path889"
       d="m 55.383984,174.76457 c -1.027294,3.22063 -1.562368,3.67577 -2.279054,1.9124 -0.565,-1.36151 -1.428087,-1.30362 -2.095999,0.14311 l -0.534238,1.16091 -0.488467,-1.13413 c -0.695817,-1.64041 -1.28887,-1.37785 -1.883568,0.84334 -0.56128,2.14974 -1.256898,2.5385 -1.964809,1.11015 -0.224522,-0.48818 -0.640235,-0.86548 -0.904728,-0.85856 -0.264494,0.007 -0.642259,0.40501 -0.858556,0.90473 -0.199127,0.48163 -0.57643,0.89734 -0.840923,0.90427 -0.264492,0.007 -0.471931,0.17116 -0.466854,0.36512 0.01893,0.72295 1.101549,0.28876 1.467309,-0.56777 0.448382,-1.07044 0.834458,-1.15113 1.15869,-0.22443 0.630826,1.85384 2.443402,0.99471 2.822813,-1.362 0.243341,-1.48855 0.659142,-1.78176 0.970816,-0.66064 0.330696,1.17355 1.564995,1.14123 1.97488,-0.0517 0.163398,-0.49834 0.453,-0.89411 0.629329,-0.89873 0.176328,-0.005 0.433345,0.37684 0.569705,0.86733 0.467053,1.66404 1.917648,1.132 2.813491,-1.04415 0.863347,-2.06942 1.025738,-1.93251 1.443873,1.23263 0.266078,2.07514 1.002702,3.92621 1.246417,3.1258 0.06453,-0.23107 -0.05466,-0.73965 -0.27641,-1.12203 -0.203657,-0.36521 -0.406303,-1.36567 -0.428468,-2.21204 -0.09059,-2.78553 -1.437896,-4.37359 -2.075249,-2.4336" />
    <path
       style="stroke-width:0.0176389"
       id="path835"
       d="m 94.847787,117.11081 0.06695,2.55677 -3.350242,0.0877 -3.350239,0.0877 -0.137482,-2.55491 -0.119851,-2.55538 -0.142333,2.65047 c -0.157284,3.42724 -0.445873,3.18776 3.750741,3.07787 4.178985,-0.10943 4.075499,-0.0185 3.989152,-3.31584 l -0.05448,-2.08067 2.257005,-0.0591 c 1.234299,-0.0323 2.753492,0.0338 3.373882,0.14103 l 1.1345,0.19968 -0.0481,2.20688 c -0.0382,1.23614 0.0614,2.34516 0.20617,2.48253 0.14475,0.13737 0.23771,-1.02963 0.19661,-2.59895 l -0.0753,-2.87415 -3.881994,-0.004 -3.881996,-0.004 0.06695,2.55676" />
    <path
       style="stroke-width:0.0176389"
       id="path839"
       d="m 73.329212,116.89647 c -3.159223,1.31787 -6.112854,2.40098 -6.553215,2.43015 -0.440822,0.0115 -0.78886,0.19711 -0.783318,0.4087 0.01616,0.61715 1.644468,0.13339 7.282624,-2.20222 7.209414,-2.97669 6.645621,-2.94428 6.838312,-0.30258 0.08476,1.21528 0.324054,2.26771 0.537499,2.3327 0.248705,0.0641 0.285443,-0.55447 0.0731,-1.92521 -0.170152,-1.10718 -0.324981,-2.30298 -0.351386,-2.63754 -0.07691,-0.91553 -0.725168,-0.73975 -7.043616,1.896" />
    <path
       style="stroke-width:0.0176389"
       id="path841"
       d="m 109.50904,115.77504 c -0.15039,0.32155 -0.18998,1.5048 -0.10707,2.64955 l 0.16028,2.0779 5.43784,0.12228 c 6.37377,0.15071 5.6415,0.48749 5.68551,-2.54859 l 0.0416,-2.45374 1.49603,-0.14504 1.49602,-0.14504 0.0651,2.48623 c 0.0374,1.42826 0.2238,2.48207 0.41775,2.47699 0.2116,-0.006 0.32357,-1.1201 0.2834,-2.65416 l -0.0693,-2.64492 -2.11593,0.0554 -2.11595,0.0554 0.0646,2.4686 0.0646,2.4686 -3.47367,0.091 c -1.92198,0.0503 -4.21702,0.005 -5.10189,-0.0958 l -1.62777,-0.16911 -0.16721,-2.3424 c -0.10839,-1.44405 -0.267,-2.1104 -0.43409,-1.75313" />
    <path
       style="stroke-width:0.0176389"
       id="path843"
       d="m 131.2603,118.23957 1.8e-4,2.69967 1.328,0.17697 c 0.72618,0.1045 3.90286,0.12718 7.04151,0.045 l 5.69541,-0.14914 0.1333,-0.97396 0.11567,-0.9735 0.0783,0.96842 c 0.0491,0.52806 0.23699,0.96427 0.44858,0.95873 0.22923,-0.006 0.30871,-1.01385 0.19293,-2.74002 -0.23895,-3.73447 -1.21568,-3.97357 -1.2788,-0.31941 l -0.0435,2.3832 -6.66522,0.17454 -6.66522,0.17453 -0.19038,-2.55353 -0.19038,-2.55353 -2.6e-4,2.68204" />
    <path
       style="stroke-width:0.0176389"
       id="path845"
       d="m 159.8324,116.49804 c -0.55233,1.14374 -0.98577,1.43741 -3.58859,2.44075 -3.2316,1.24919 -3.31838,1.30439 -3.04696,1.56196 0.50711,0.49842 6.34578,-2.26592 6.867,-3.25004 0.65628,-1.21704 0.51522,-1.21334 3.86021,-0.15401 2.9181,0.92934 3.6201,1.45795 3.6538,2.74515 0.0115,0.44082 0.17994,0.80696 0.3739,0.80188 0.52898,-0.0139 0.38394,-1.50988 -0.2382,-2.35819 -0.3113,-0.43297 -1.56222,-1.03543 -2.94959,-1.45787 -1.31591,-0.38902 -2.82994,-0.93165 -3.34776,-1.16512 -0.91128,-0.43491 -0.98089,-0.3978 -1.58381,0.83549" />
    <path
       style="stroke-width:0.0176389"
       id="path847"
       d="m 73.053087,128.61923 c 0.0361,0.70485 0.636921,1.41256 1.001207,1.17364 0.190728,-0.12851 0.44359,0.0943 0.560007,0.49704 0.116417,0.40278 0.369739,0.64318 0.560472,0.51467 0.173556,-0.11041 0.424111,0.0242 0.555392,0.32071 0.114107,0.31462 0.382291,0.44876 0.573024,0.32025 0.190728,-0.12851 0.351269,-0.0621 0.356809,0.14946 0.0051,0.19396 0.256556,0.36383 0.538684,0.35644 0.299757,-0.008 0.533601,0.16248 0.539142,0.37407 0.0056,0.21159 0.237077,0.29375 0.516429,0.18057 0.261726,-0.11272 0.545235,-0.0672 0.620385,0.10727 0.15122,0.38423 2.419307,0.74832 2.40961,0.37802 -0.03333,-0.59905 -0.684273,-1.19958 -1.048562,-0.96065 -0.208362,0.12897 -0.386535,0.0631 -0.392078,-0.14854 -0.0055,-0.2116 -0.166547,-0.2956 -0.357275,-0.1671 -0.190727,0.12851 -0.351732,0.0445 -0.357738,-0.18472 -0.006,-0.22923 -0.237537,-0.31139 -0.499258,-0.19867 -0.279355,0.11319 -0.601361,-0.0548 -0.732642,-0.35136 -0.114109,-0.31462 -0.329398,-0.45014 -0.449596,-0.32348 -0.120194,0.12666 -0.421804,0.064 -0.692298,-0.15832 -0.270033,-0.20467 -0.483476,-0.26966 -0.479779,-0.12859 0.0032,0.12343 -0.393002,-0.18381 -0.882481,-0.68269 -0.489476,-0.49889 -1.044406,-0.80196 -1.252768,-0.673 -0.207901,0.14661 -0.37075,-0.008 -0.3786,-0.30769 -0.0078,-0.29976 -0.173008,-0.54246 -0.366972,-0.53738 -0.19396,0.005 -0.347575,0.20319 -0.341114,0.45005" />
    <path
       style="stroke-width:0.0176389"
       id="path849"
       d="m 94.737702,128.71011 c -0.358748,0.45052 -0.860404,0.8342 -1.107265,0.84067 -0.246859,0.006 -0.436663,0.17023 -0.432049,0.34656 0.0051,0.19397 -0.2223,0.2705 -0.52529,0.15492 -0.355889,-0.1142 -0.528524,0.0315 -0.518364,0.41941 0.01339,0.51135 -0.07431,0.53129 -0.524367,0.19018 -0.432425,-0.34158 -0.573027,-0.32025 -0.720175,0.12472 -0.115123,0.32063 -0.428355,0.48764 -0.695621,0.38876 -0.284893,-0.0984 -0.598131,0.0686 -0.696077,0.37113 -0.11558,0.30299 -0.411183,0.46953 -0.660352,0.38783 -0.409713,-0.14807 -1.071536,0.85738 -0.781561,1.14975 0.234768,0.20559 1.667272,-0.34363 1.659422,-0.64338 -0.0042,-0.1587 0.223687,-0.2176 0.526674,-0.10202 0.30253,0.0979 0.615768,-0.0691 0.747594,-0.42541 0.164325,-0.46307 0.269197,-0.50111 0.508119,-0.13682 0.238924,0.36429 0.413866,0.30677 0.822743,-0.25093 0.37407,-0.53914 0.513747,-0.59573 0.542001,-0.19064 0.02687,0.35219 0.305298,0.20374 0.88727,-0.482 0.461772,-0.55909 0.841383,-0.88664 0.863174,-0.7284 0.0042,0.15869 0.228764,-0.0236 0.518364,-0.41941 0.272428,-0.37768 0.498885,-0.48948 0.504891,-0.26025 0.0065,0.24686 0.167928,0.3485 0.358656,0.21999 0.19073,-0.12851 0.354044,0.0437 0.362355,0.36106 0.0092,0.35265 0.207351,0.50627 0.486706,0.39308 0.261723,-0.11272 0.690451,0.0878 0.964639,0.45116 0.256096,0.34619 0.614294,0.54855 0.770681,0.45623 0.155924,-0.10995 0.281662,-0.025 0.287205,0.18658 0.0051,0.19395 0.256554,0.36382 0.538681,0.35643 0.299757,-0.008 0.533604,0.16248 0.538682,0.35644 0.0056,0.21159 0.166082,0.27797 0.356812,0.14946 0.19073,-0.12851 0.35127,-0.0621 0.35635,0.13183 0.005,0.19396 0.2909,0.32764 0.62546,0.30123 0.33457,-0.0264 0.90159,0.0646 1.2403,0.19691 0.35682,0.14945 0.62039,0.10727 0.61484,-0.10433 -0.0148,-0.56425 -1.1334,-1.50543 -1.57007,-1.33519 -0.20974,0.0761 -0.70993,-0.15786 -1.10709,-0.50036 -0.39761,-0.36013 -0.771597,-0.4915 -0.837516,-0.31332 -0.04781,0.19534 -0.512273,-0.0219 -1.036095,-0.48457 -0.505722,-0.44553 -1.097764,-0.81821 -1.291725,-0.81314 -0.193963,0.005 -0.697378,-0.35228 -1.114478,-0.78248 l -0.779912,-0.80889 -0.683612,0.84721" />
    <path
       style="stroke-width:0.0176389"
       id="path851"
       d="m 116.59315,128.03124 c -0.11789,0.21483 -0.5504,0.54376 -0.96851,0.7488 -0.41857,0.18741 -1.37406,0.75943 -2.13744,1.25583 -0.76384,0.47877 -1.61492,0.99511 -1.91099,1.14403 -0.76615,0.3906 -1.82799,1.61826 -1.59276,1.84149 0.1262,0.10256 0.90722,-0.3943 1.75276,-1.12224 0.84554,-0.72794 1.76484,-1.3343 2.04696,-1.34168 0.28213,-0.007 0.69885,-0.26533 0.93833,-0.55392 0.23901,-0.30622 0.70909,-0.54792 1.06175,-0.55715 0.37029,-0.01 0.80372,-0.30337 0.97128,-0.64301 0.32024,-0.57302 0.37315,-0.57441 1.0227,-0.0268 0.37907,0.32533 0.84491,0.59545 1.02124,0.59083 0.19396,-0.005 0.62546,0.30123 0.953,0.68084 0.34519,0.37915 0.86485,0.68315 1.14698,0.67577 0.28212,-0.007 0.63986,0.17734 0.80502,0.42004 0.40408,0.60699 2.50406,1.96359 3.01541,1.95021 0.2645,-0.007 0.16895,-0.28675 -0.23006,-0.69978 -0.36281,-0.37869 -0.81194,-0.68453 -0.98827,-0.67992 -0.17633,0.005 -0.76699,-0.31517 -1.2885,-0.6897 -4.17439,-3.08442 -5.22997,-3.63906 -5.6189,-2.99366" />
    <path
       style="stroke-width:0.0176389"
       id="path853"
       d="m 138.84116,128.18609 c -0.14854,0.39207 -0.48965,0.84213 -0.73236,1.00729 -0.26033,0.16562 -0.46223,0.54145 -0.45484,0.82357 0.008,0.29976 -0.12952,0.44452 -0.30862,0.34334 -0.16147,-0.10164 -0.38469,0.13359 -0.48033,0.52428 -0.22239,0.94101 -1.28082,0.95108 -1.30483,0.0342 -0.0231,-0.88164 -0.65879,-0.90028 -0.98929,-0.0447 -0.13229,0.33872 -0.54763,0.64956 -0.93509,0.67735 -1.6032,0.0949 -1.86492,0.20764 -2.02278,0.91757 -0.14392,0.56841 -0.053,0.6719 0.40085,0.48356 0.33133,-0.14983 0.78609,-0.3029 1.01439,-0.34417 0.24594,-0.0417 0.52437,-0.19018 0.64457,-0.31684 0.1202,-0.12667 0.43712,-0.15261 0.68676,-0.0533 0.2668,0.0812 0.54384,-0.12011 0.62231,-0.49271 0.11004,-0.51459 0.16294,-0.51597 0.20975,-0.0761 0.0968,1.00322 1.74649,0.66006 2.38698,-0.48599 0.58991,-1.05649 1.47395,-1.66193 1.49057,-1.02714 0.005,0.19396 0.16562,0.26033 0.35635,0.13182 0.19073,-0.12851 0.35127,-0.0621 0.35681,0.14947 0.005,0.19395 0.25656,0.36382 0.53869,0.35643 0.29976,-0.008 0.53729,0.30354 0.54745,0.69146 0.0212,0.81112 1.29081,0.77787 1.78046,-0.0643 0.27058,-0.4482 0.30584,-0.44913 0.33548,0.009 0.009,0.33503 0.4027,0.5541 1.10894,0.57089 0.61854,0.0367 1.33216,0.33566 1.60542,0.66376 0.43843,0.5708 0.49133,0.56942 0.47701,0.0228 -0.004,-0.8292 -0.99649,-1.66782 -1.94867,-1.64288 -0.54662,0.0143 -0.9062,-0.24095 -1.07875,-0.76578 -0.24954,-0.76984 -0.28435,-0.75128 -0.71602,0.28343 -0.26689,0.58927 -0.49011,0.8245 -0.4975,0.54237 -0.0301,-0.47562 -0.083,-0.47424 -0.37029,0.01 -0.28775,0.46631 -0.32302,0.46723 -0.3522,0.0269 -0.008,-0.29975 -0.41008,-0.83621 -0.87916,-1.22976 -0.46907,-0.39356 -0.94599,-1.08687 -1.04708,-1.57827 -0.14467,-0.80788 -0.1804,-0.82459 -0.44498,-0.14716" />
    <path
       style="stroke-width:0.0176389"
       id="path855"
       d="m 71.998283,129.06395 c 0.0046,0.17633 -0.222763,0.25286 -0.525753,0.13728 -0.338257,-0.11465 -0.649645,0.12288 -0.847386,0.65741 -0.262734,0.74797 -0.315169,0.76698 -0.349425,0.13266 -0.05143,-0.61622 -0.104788,-0.63247 -0.480243,-0.14622 -0.221376,0.30575 -0.68823,0.67088 -1.01956,0.82071 -0.331791,0.13221 -0.621392,0.52798 -0.61262,0.863 -0.01911,0.61808 -0.01957,0.60044 -0.282125,0.007 -0.244463,-0.57588 -0.314995,-0.57403 -1.019934,0.13258 -0.980602,0.96086 -0.994165,1.79053 -0.04846,1.51873 0.385151,-0.11595 0.696541,-0.35349 0.692385,-0.51218 -0.0046,-0.17633 0.115583,-0.30299 0.257106,-0.28906 0.601825,0.0725 1.803255,-0.54127 1.967577,-1.00434 0.09887,-0.26727 0.413031,-0.39901 0.71556,-0.30106 0.373984,0.13137 0.546616,-0.0143 0.535075,-0.45514 0.0047,-0.49418 0.07385,-0.54892 0.312772,-0.18464 0.257019,0.38146 0.450056,0.34112 1.036183,-0.18593 0.878959,-0.7994 0.92447,-1.08291 0.194598,-1.32847 -0.285361,-0.11604 -0.530371,-0.0391 -0.525754,0.13728" />
    <path
       style="stroke-width:0.0176389"
       id="path857"
       d="m 157.05402,130.0652 c -1.80103,1.29995 -3.5162,2.50943 -3.81135,2.69361 -0.27797,0.16608 -0.41256,0.41663 -0.28591,0.53683 0.1443,0.11974 1.86363,-0.93104 3.85632,-2.32424 l 3.60299,-2.56464 2.45633,1.48843 c 1.36272,0.82892 2.76302,1.74508 3.10635,2.0537 0.54146,0.46223 0.75351,0.47432 1.20181,0.0744 0.44829,-0.39993 0.57311,-0.35027 0.74889,0.298 0.32931,1.12065 0.90565,0.89382 0.61161,-0.22776 -0.37151,-1.38422 -0.80393,-1.7258 -1.31444,-1.00663 -0.39171,0.53961 -0.6766,0.44119 -3.11715,-1.11823 -1.47129,-0.93195 -2.92402,-1.82909 -3.22793,-1.97993 -0.37537,-0.18427 -1.54107,0.44618 -3.82752,2.07646" />
    <path
       style="stroke-width:0.0176389"
       id="path865"
       d="m 69.440524,147.25338 c -1.609381,1.20671 -3.168172,2.32387 -3.463313,2.50805 -0.277967,0.16608 -0.394934,0.41617 -0.267811,0.55401 0.144295,0.11973 1.759217,-0.87538 3.594593,-2.21152 1.834913,-1.35378 3.377918,-2.39994 3.432663,-2.3308 0.05429,0.0515 0.29413,0.45107 0.5349,0.88588 0.518652,0.93925 1.049026,0.9783 1.662108,0.13293 0.40841,-0.57533 0.462232,-0.54145 0.484856,0.32256 0.04857,1.18094 0.730624,1.62184 1.291725,0.81313 0.356902,-0.52105 0.446913,-0.45283 0.687137,0.63487 0.243453,1.21113 1.085125,1.68314 1.361336,0.77602 0.08124,-0.2668 0.313696,-0.14937 0.573485,0.33788 0.647163,1.12997 1.207256,0.9565 0.683064,-0.19433 -0.692124,-1.49934 -0.979329,-1.68592 -1.506093,-0.91339 -0.459465,0.64725 -0.495655,0.6129 -0.757201,-0.61539 -0.259704,-1.15777 -1.285554,-1.92493 -1.259697,-0.93749 0.02125,0.81111 -0.662659,0.29967 -0.792003,-0.59683 -0.172924,-1.21297 -1.074047,-1.25996 -1.377673,-0.0522 -0.206139,0.88764 -0.206139,0.88764 -0.676973,-0.24695 -0.585404,-1.46684 -0.725543,-1.42789 -4.205103,1.13352" />
    <path
       style="stroke-width:0.0176389"
       id="path867"
       d="m 92.75138,145.50627 c -0.205129,0.25241 -0.523531,0.89596 -0.703641,1.43002 -0.377851,1.06859 -1.218687,1.30235 -1.577258,0.41185 -0.319614,-0.75037 -1.336865,0.15852 -1.949111,1.70966 -0.213987,0.58789 -0.537006,1.05512 -0.73097,1.0602 -0.176326,0.005 -0.206976,0.18186 -0.05991,0.4074 0.294129,0.45106 1.529064,-0.90464 1.508749,-1.68049 -0.0065,-0.24686 0.230238,-0.64125 0.505896,-0.8955 0.431589,-0.36419 0.520214,-0.34887 0.533144,0.14485 0.02909,1.11087 1.546524,0.43592 2.267336,-1.0122 0.804357,-1.62675 1.015029,-1.66756 1.52713,-0.30466 0.473604,1.24039 0.668491,1.27057 1.683433,0.27352 0.842769,-0.83373 1.534607,-0.69304 1.561385,0.32966 0.0092,0.35266 0.344173,1.0144 0.744101,1.46269 l 0.727014,0.81028 0.717495,-0.90104 0.717957,-0.8834 0.69175,0.81119 c 0.38183,0.43113 0.69729,1.0228 0.70467,1.30492 0.007,0.28213 0.15215,0.4195 0.32571,0.30909 0.5035,-0.31315 0.0146,-1.46492 -0.97878,-2.33879 l -0.90335,-0.80566 -0.525837,0.80779 c -0.711491,1.13026 -1.032115,1.01514 -1.496398,-0.5431 -0.50278,-1.68075 -1.323586,-2.0298 -2.373334,-1.01419 l -0.773623,0.77898 -0.592878,-1.07845 c -0.648547,-1.18288 -1.004899,-1.31471 -1.550681,-0.59462" />
    <path
       style="stroke-width:0.0176389"
       id="path869"
       d="m 115.92693,146.33184 c -0.19729,0.55216 -0.43814,0.78785 -0.53277,0.5433 -0.30198,-0.75082 -1.1586,-0.44607 -1.36382,0.47684 -0.23633,1.08253 -0.6753,1.1646 -0.94848,0.16599 -0.28989,-0.96288 -0.84398,-0.56018 -1.10911,0.77013 -0.23356,1.18833 -0.84424,1.45135 -0.87241,0.37575 -0.0282,-1.07561 -0.56878,-0.83206 -1.36105,0.58263 -0.80851,1.46806 -0.84054,1.59241 -0.32919,1.57902 0.19396,-0.005 0.56895,-0.50896 0.80011,-1.11494 0.39688,-1.01615 0.44931,-1.03517 0.64318,-0.36974 0.3103,1.06822 0.95856,0.89244 1.4543,-0.39098 0.41358,-1.05188 0.44838,-1.07044 0.66219,-0.3173 0.29128,1.01577 1.12242,0.41173 1.45485,-1.04386 0.22238,-0.941 0.24002,-0.94147 0.56009,-0.17347 0.43464,1.10025 0.9075,0.96435 1.4014,-0.3896 l 0.4108,-1.15768 0.16646,0.96612 c 0.18917,1.15961 0.59657,1.21952 1.29274,0.17789 l 0.50913,-0.77207 0.2537,0.92854 c 0.29173,1.03341 0.54136,1.13274 1.15953,0.48134 0.32624,-0.3438 0.41764,-0.22268 0.43703,0.5179 0.0291,1.11087 0.29589,1.19211 0.92568,0.31102 0.40888,-0.5577 0.46316,-0.50619 0.49087,0.55178 0.043,0.96934 0.15344,1.1429 0.62445,0.93647 0.33179,-0.1322 0.72248,-0.0366 0.87001,0.20661 0.16516,0.2427 0.37906,0.32533 0.49926,0.19866 0.34342,-0.36189 -0.71484,-1.69284 -1.18631,-1.50404 -0.24408,0.11226 -0.44359,-0.0943 -0.45282,-0.44691 -0.0236,-0.89928 -0.40123,-1.17171 -0.95301,-0.68085 -0.36244,0.30946 -0.47009,0.2417 -0.48579,-0.35782 -0.0208,-0.79347 -0.92605,-0.99916 -1.17161,-0.26928 -0.0817,0.24917 -0.28213,0.007 -0.43704,-0.51791 -0.3307,-1.17355 -1.02023,-1.22607 -1.52105,-0.13661 -0.34997,0.78554 -0.34997,0.78554 -0.41017,-0.16572 -0.0338,-0.61668 -0.23699,-0.96426 -0.57201,-0.95549 -0.29976,0.008 -0.7114,0.45976 -0.90914,0.99428" />
    <path
       style="stroke-width:0.0176389"
       id="path871"
       d="m 137.44931,146.7743 c -0.35883,1.12103 -0.96767,1.45458 -0.99122,0.55531 -0.024,-0.91691 -0.70246,-0.54625 -1.18288,0.64854 -0.41542,0.98135 -0.48457,1.0361 -0.51975,0.36651 -0.0838,-1.18001 -0.99473,-0.92678 -1.43665,0.39052 -0.37601,1.13912 -0.39364,1.13959 -0.73181,0.35442 -0.39615,-0.97774 -0.81426,-0.7727 -1.51559,0.74548 -0.7185,1.53628 -0.36123,1.70338 0.49972,0.2163 0.60754,-1.05696 0.69478,-1.09453 0.71279,-0.40685 0.0314,1.19903 1.01283,0.94395 1.54246,-0.39329 0.41542,-0.98135 0.48457,-1.0361 0.51975,-0.36651 0.088,1.33871 1.42725,0.59784 1.46084,-0.81463 0.0196,-0.60044 0.0544,-0.619 0.20883,-0.11134 0.27225,0.96334 1.43048,0.72128 1.66726,-0.34362 0.18851,-0.88718 0.22332,-0.90574 0.69793,-0.3006 0.49271,0.62232 0.51034,0.62186 1.21667,-0.0319 0.72303,-0.68944 0.72303,-0.68944 0.75212,0.42143 0.0319,1.21667 0.51395,1.43343 1.03563,0.46694 0.30354,-0.5373 0.35783,-0.48578 0.37953,0.34296 0.0463,1.09277 0.54459,1.25617 1.04957,0.32541 0.30354,-0.53729 0.35783,-0.48578 0.37907,0.32533 0.0472,1.12804 0.60488,1.53692 1.29495,0.93657 0.39679,-0.34565 0.50305,-0.33079 0.51551,0.1453 0.008,0.29976 0.19111,0.55963 0.4027,0.55409 0.21159,-0.006 0.29329,-0.25471 0.16155,-0.56886 -0.13128,-0.29653 -0.23006,-0.69978 -0.23468,-0.87611 -0.005,-0.17633 -0.23753,-0.31139 -0.53729,-0.30354 -0.28213,0.007 -0.52437,0.19018 -0.51929,0.38414 0.006,0.2116 -0.15131,0.28629 -0.3485,0.16794 -0.1972,-0.11836 -0.36836,-0.59028 -0.38083,-1.06638 -0.0249,-0.95217 -0.36365,-1.08446 -0.99898,-0.41496 -0.32625,0.3438 -0.41626,0.27558 -0.43011,-0.25341 -0.0231,-0.88164 -2.02336,-1.79973 -2.60718,-1.18452 -0.56665,0.59712 -0.93971,0.50102 -0.96049,-0.29246 -0.0277,-1.05797 -0.70984,-0.82837 -1.10163,0.38175" />
    <path
       style="stroke-width:0.0176389"
       id="path873"
       d="m 159.64025,147.85853 c -0.32994,0.20273 -0.60237,0.58041 -0.59544,0.8449 0.0143,0.54662 -0.73467,0.91913 -1.89844,0.94961 -0.44081,0.0115 -0.99907,0.25555 -1.23808,0.56177 -0.25618,0.32431 -1.02648,0.55622 -1.99629,0.58162 -0.84638,0.0222 -1.47747,0.17985 -1.36751,0.33577 0.27557,0.41627 2.91588,0.17068 3.45049,-0.30209 0.25896,-0.21852 1.04505,-0.52142 1.79957,-0.68234 0.92992,-0.2008 1.45013,-0.54968 1.69939,-1.13849 0.41496,-0.99898 2.42095,-1.21031 3.58971,-0.37631 0.37768,0.27242 1.30059,0.47764 2.04117,0.45825 1.2343,-0.0323 1.37813,0.0698 1.59702,1.01687 0.13867,0.57866 0.38036,1.04874 0.55669,1.04412 0.37029,-0.01 -0.0457,-1.74565 -0.55605,-2.3675 -0.20043,-0.24178 -0.94608,-0.41635 -1.66903,-0.39742 -0.70531,0.0185 -1.61059,-0.18721 -1.98827,-0.45964 -0.80917,-0.57874 -2.5395,-0.62165 -3.42493,-0.0691" />
    <path
       style="stroke-width:0.0176389"
       id="path875"
       d="m 120.98047,159.05733 c -0.20512,0.2524 -0.51937,1.05465 -0.73013,1.76597 -0.68009,2.32929 -1.46803,2.56166 -1.85569,0.56029 -0.22674,-1.24685 -0.9604,-0.96297 -1.36289,0.5121 -0.74047,2.71907 -1.41375,2.61319 -1.80733,-0.28792 -0.25823,-1.77538 -1.21002,-1.0623 -2.23308,1.64652 -0.51153,1.35441 -0.54587,1.39059 -0.91838,0.64162 -0.54137,-1.13275 -1.08383,-0.95974 -2.08215,0.67209 -0.49103,0.78924 -0.77417,1.43187 -0.61547,1.42772 0.38792,-0.0102 1.25857,-1.12695 1.53663,-1.96354 0.21167,-0.67605 0.2474,-0.65934 0.67327,0.10588 0.68566,1.25248 1.08614,1.0479 1.96805,-0.98671 0.99794,-2.31998 1.29677,-2.36309 1.49417,-0.21558 0.22334,2.46444 1.14024,2.44043 2.18693,-0.0396 0.66515,-1.55253 0.81922,-1.73301 0.85717,-0.95763 0.14958,2.34286 2.28047,1.51069 2.6896,-1.05854 0.39336,-2.49824 1.02112,-2.10884 1.74179,1.15424 0.838,3.70114 1.06668,4.34802 1.22315,3.58518 0.52048,-2.3604 -1.81098,-7.83986 -2.76564,-6.56207" />
    <path
       style="stroke-width:0.0176389"
       id="path877"
       d="m 144.16846,159.44208 c 0.007,0.2645 -0.21169,0.67605 -0.50498,0.93076 -0.27566,0.25425 -0.50959,0.75444 -0.50036,1.10709 0.01,0.37029 -0.12352,0.67374 -0.29984,0.67836 -0.17633,0.005 -0.46501,0.43566 -0.61032,0.95116 l -0.29245,0.96049 -0.41517,-1.03018 c -0.22637,-0.55871 -0.51025,-1.29236 -0.62482,-1.62462 -0.53343,-1.50349 -1.44442,-0.57975 -2.42482,2.41028 -0.32634,1.0143 -0.92808,0.27133 -1.20348,-1.48596 -0.33569,-2.03802 -0.94683,-1.79263 -2.19958,0.90456 -1.03598,2.2151 -1.69356,2.70873 -1.73096,1.28047 -0.0305,-1.16377 -0.80817,-1.21398 -1.64355,-0.0981 -0.83584,1.09823 -0.98207,1.57847 -0.48835,1.56554 0.15869,-0.004 0.46547,-0.41802 0.66459,-0.89965 0.49852,-1.17761 1.02842,-1.1562 1.20134,0.0568 0.21743,1.56471 1.08753,1.1008 2.12351,-1.1143 1.0021,-2.16128 1.59007,-2.61779 1.62563,-1.26007 0.0619,2.3628 1.82977,2.49296 2.52842,0.19847 0.48789,-1.58318 1.05869,-2.0216 1.26365,-0.93298 0.47158,2.51087 1.39025,3.22791 1.98117,1.53616 0.21399,-0.58788 0.50128,-1.07182 0.64234,-1.07551 0.1587,-0.004 0.27613,-0.23662 0.2692,-0.50111 -0.007,-0.26449 0.29477,-0.87232 0.65305,-1.34047 l 0.68361,-0.84722 0.0757,2.89179 c 0.0629,1.72756 0.25436,2.97534 0.48728,3.11039 0.32247,0.18566 0.1557,-5.5093 -0.19586,-6.80581 -0.0974,-0.35035 -1.07514,0.0458 -1.06498,0.43372" />
    <path
       style="stroke-width:0.0176389"
       id="path879"
       d="m 165.59327,159.94837 c -2.0754,2.27761 -2.21462,2.35184 -2.44699,1.5639 -0.23375,-0.84084 -0.90657,-0.92909 -1.18648,-0.16303 -0.0979,0.30253 -0.62563,1.03979 -1.17418,1.65409 l -0.97691,1.10192 -0.26709,-1.43989 c -0.37003,-2.00184 -0.72407,-2.0455 -2.23097,-0.29448 -1.18204,1.35432 -1.35606,1.4471 -1.68823,0.89116 -0.33216,-0.55594 -0.47184,-0.49934 -1.55408,0.62298 -1.25441,1.28564 -1.85826,2.48366 -1.25875,2.46796 0.19397,-0.005 0.45107,-0.29413 0.56573,-0.63238 0.35975,-1.08576 1.74083,-2.25121 1.9672,-1.6925 0.22545,0.52345 1.28757,0.65444 1.27464,0.16072 -0.008,-0.31739 1.94412,-2.57413 2.22625,-2.58152 0.10579,-0.003 0.18556,0.34804 0.1971,0.78886 0.0532,1.35727 0.46789,2.36981 0.99688,2.35596 0.26449,-0.007 0.62554,-0.36928 0.79033,-0.81472 0.44377,-1.24676 1.6884,-2.23218 1.9709,-1.55142 0.30198,0.75082 1.11032,0.62378 1.35311,-0.21189 0.11327,-0.39115 0.42235,-0.71685 0.68684,-0.72378 0.26449,-0.007 0.80003,-0.44443 1.1922,-0.9664 l 0.69893,-0.93584 0.0864,3.29734 c 0.048,1.83382 0.2515,3.54005 0.43522,3.81756 0.55115,0.83252 0.74704,0.22747 0.34258,-1.06767 -0.2115,-0.66497 -0.41453,-2.35357 -0.451,-3.74656 -0.0771,-2.94469 -0.33182,-3.23798 -1.54958,-1.90037" />
    <path
       style="stroke-width:0.0176389"
       id="path881"
       d="m 76.366057,160.61858 c -0.710478,0.49502 -1.293373,1.1455 -1.285523,1.44526 0.04248,1.62222 -3.387328,3.3883 -4.126347,2.11957 -0.3498,-0.55547 -0.402701,-0.55409 -1.022707,0.0268 -0.791716,0.76182 -1.073381,0.78684 -1.812487,0.18863 -0.486709,-0.39309 -0.749816,-0.33327 -1.754051,0.39883 -0.952262,0.69544 -1.03627,0.85644 -0.454384,0.84121 0.387923,-0.0102 0.89281,-0.27041 1.13228,-0.559 0.375457,-0.48625 0.481717,-0.47138 0.919218,0.0642 0.438425,0.5708 0.544221,0.56803 1.517348,-0.004 0.885887,-0.5349 1.097017,-0.55808 1.461216,-0.12649 0.981725,1.10357 4.216188,-0.71033 4.643329,-2.59188 0.1105,-0.49695 0.676224,-1.12934 1.320329,-1.46382 1.426961,-0.7608 1.826426,-0.33014 2.485882,2.61694 0.259241,1.14013 0.618275,2.04827 0.794602,2.04365 0.176329,-0.005 0.239474,-0.28859 0.142536,-0.62131 -0.11457,-0.33225 -0.315833,-1.2798 -0.460505,-2.08768 -0.535101,-2.91505 -1.594368,-3.61076 -3.500736,-2.2904" />
    <path
       style="stroke-width:0.0176389"
       id="path885"
       d="m 97.012053,161.58789 c -2.054733,0.37141 -2.211118,0.46373 -2.447907,1.52863 -0.253037,1.11826 -0.2883,1.11918 -3.660881,1.70155 -1.879324,0.33153 -3.403687,0.74199 -3.39907,0.91832 0.0051,0.19396 0.359585,0.25526 0.797634,0.13792 0.43805,-0.11734 1.737802,-0.34547 2.897876,-0.51701 2.812483,-0.4089 3.684428,-0.80227 3.662727,-1.63102 -0.0254,-0.96981 0.479494,-1.23006 3.483166,-1.74983 3.196252,-0.57776 3.160522,-0.59447 3.214552,1.46858 0.024,0.9169 0.2081,1.88255 0.4099,2.17723 0.42218,0.62417 0.44608,-1.1586 0.038,-3.2653 -0.2861,-1.49233 -0.64061,-1.55363 -4.99601,-0.76907" />
    <path
       style="stroke-width:0.0176389"
       id="path891"
       d="m 78.391254,176.5076 c -0.422063,2.07551 -1.147953,3.32967 -1.841174,3.13608 -0.355428,-0.0966 -0.758674,0.002 -0.894197,0.21751 -0.168478,0.30438 -0.327636,0.2909 -0.548465,-0.0562 -0.238924,-0.36429 -0.45098,-0.37638 -0.988825,-0.027 -0.797718,0.53259 -1.092311,0.0639 -1.142642,-1.85809 -0.04571,-1.74565 -0.740405,-1.32162 -1.285899,0.75712 -0.402035,1.4927 -0.521769,1.63699 -0.905912,1.11771 -0.419868,-0.536 -0.490403,-0.53416 -0.917832,-0.0112 -0.409337,0.54006 -0.497962,0.52474 -0.953559,-0.028 -0.473692,-0.56988 -0.508957,-0.56896 -0.969345,0.043 -0.409337,0.54006 -0.497039,0.56 -0.685373,0.10617 -0.301979,-0.75083 -1.058344,-0.66044 -1.547534,0.19932 -0.236703,0.39439 -0.281289,0.71317 -0.08733,0.70809 0.176327,-0.005 0.419031,-0.16978 0.537383,-0.36697 0.117889,-0.21483 0.471468,-0.1888 0.919215,0.0642 0.573947,0.35551 0.767449,0.3328 1.038029,-0.11541 0.287292,-0.48393 0.357825,-0.48578 0.670049,-0.0175 0.293668,0.43343 0.488091,0.44599 1.060279,0.0605 0.416264,-0.27557 0.715097,-0.31869 0.720638,-0.10709 0.0254,0.9698 1.062587,0.14862 1.504045,-1.18631 0.456782,-1.42356 0.491125,-1.45975 0.552709,-0.4556 0.07267,1.42734 0.566298,2.08492 1.317122,1.78294 0.33133,-0.14983 0.809265,-0.0918 1.061662,0.11336 0.324321,0.25618 0.518279,0.2511 0.670049,-0.0175 0.135525,-0.21529 0.574498,-0.29736 1.018088,-0.20311 0.656571,0.14161 0.914601,-0.11217 1.66652,-1.71991 l 0.903232,-1.89401 0.04995,1.23384 c 0.07405,1.48023 0.444169,2.81155 0.761558,2.80324 0.211592,-0.006 -0.271444,-3.62775 -0.65596,-4.83518 -0.231913,-0.7703 -0.841211,-0.45438 -1.026489,0.55623" />
    <path
       style="stroke-width:0.0176389"
       id="path893"
       d="m 99.599096,177.8309 c -0.546418,2.04348 -1.850039,3.47156 -1.887437,2.0433 -0.03001,-1.14613 -0.683813,-1.18195 -1.856066,-0.12785 -1.121201,0.98219 -1.121201,0.98219 -1.264949,0.20958 -0.187783,-1.10671 -0.967785,-1.24509 -2.038855,-0.37009 -1.088247,0.8931 -1.52722,0.97517 -1.545688,0.26986 -0.0074,-0.28213 -0.156763,-0.59582 -0.335399,-0.67937 -0.358659,-0.21999 -3.176857,1.31833 -3.166237,1.72389 0.01246,0.47609 0.870934,0.24187 1.75174,-0.487 1.03627,-0.85644 1.387541,-0.91858 1.405549,-0.2309 0.02355,0.89928 0.766897,0.98568 1.786919,0.1826 1.141142,-0.89449 1.369449,-0.93576 1.385146,-0.33624 0.05134,1.28674 0.673108,1.44691 1.900103,0.46195 1.434439,-1.14919 1.539311,-1.18723 1.507191,-0.39237 -0.107445,1.9614 2.079667,0.58076 2.690611,-1.69379 0.499526,-1.81286 0.789496,-1.52049 1.013296,0.96159 0.0955,0.95032 0.34224,1.61437 0.64477,1.71232 0.32016,0.0975 0.38838,0.007 0.18611,-0.30484 -0.14753,-0.24317 -0.40723,-1.40093 -0.5435,-2.56193 -0.35462,-2.76097 -0.97592,-2.90351 -1.633304,-0.38071" />
    <path
       style="stroke-width:0.0176389"
       id="path895"
       d="m 121.83827,176.47315 c -0.11974,0.14429 -0.21538,0.53498 -0.20614,0.88764 0.0351,1.3401 -1.87829,3.06647 -2.67215,2.39911 -0.86669,-0.75369 -1.46621,-0.73799 -2.2751,0.0419 -0.60237,0.58041 -0.70817,0.58318 -1.65748,0.0434 -0.98458,-0.53886 -1.07275,-0.53655 -1.91875,0.17375 l -0.88081,0.72887 -0.40639,-0.69516 c -0.22221,-0.40002 -0.51265,-0.71002 -0.67134,-0.70586 -0.54662,0.0143 -2.51198,1.77733 -2.18951,1.96298 0.19673,0.10072 0.75498,-0.14328 1.27288,-0.58032 0.89844,-0.72932 0.93325,-0.74788 1.42642,-0.10793 0.47461,0.60514 0.58041,0.60237 1.51873,0.0485 0.92069,-0.55346 1.09702,-0.55808 1.92106,-0.0856 0.84167,0.47202 0.96464,0.45115 1.86308,-0.27817 l 0.94949,-0.80124 0.79477,0.70263 c 0.41572,0.3773 0.91775,0.68176 1.09408,0.67715 0.51135,-0.0134 2.21322,-2.40474 2.21193,-3.12814 0.028,-0.95357 0.64817,0.49472 0.71345,1.63994 0.0602,0.95125 0.61735,2.013 0.90972,1.72302 0.0854,-0.1081 0.014,-0.81203 -0.18262,-1.58326 -0.19619,-0.75359 -0.45358,-1.8232 -0.57323,-2.34941 -0.23652,-0.94663 -0.57801,-1.18472 -1.04209,-0.7138" />
    <path
       style="stroke-width:0.0176389"
       id="path897"
       d="m 164.55305,176.45876 c -0.12173,0.14261 -0.22153,0.63776 -0.21549,1.13161 0.0101,0.82896 -0.0249,0.84703 -0.4732,0.25274 -0.34071,-0.45448 -0.55323,-0.52245 -0.72616,-0.23809 -0.1383,0.23101 -0.41942,0.32265 -0.63258,0.20177 -0.46224,-0.29423 -0.96381,0.52335 -0.96917,1.5289 0.006,0.52913 -0.1499,0.72508 -0.48653,0.60571 -0.30134,-0.1198 -0.59838,0.11316 -0.73409,0.55582 -0.271,0.9206 -1.223,0.96751 -1.23399,0.068 -0.0194,-1.58738 -0.85806,-2.37095 -1.23121,-1.14921 -0.1697,0.54892 -1.5936,0.9544 -1.59985,0.44291 -0.009,-0.74078 -2.71791,-0.10791 -3.46512,0.81851 -0.60805,0.76595 -0.6758,0.9961 -0.27013,0.99115 0.29984,-0.004 0.66764,-0.21984 0.82314,-0.48635 0.2936,-0.51515 2.56302,-1.01916 2.56841,-0.57822 0.004,0.31747 1.44887,0.19398 2.00874,-0.18331 0.22757,-0.1439 0.4945,0.0469 0.6227,0.4334 0.3474,1.00125 1.33812,1.2361 1.96359,0.4523 0.29532,-0.37406 0.73346,-0.60873 0.96361,-0.54099 0.248,0.0852 0.439,-0.16412 0.43426,-0.55215 -0.005,-0.38802 0.39402,-0.95738 0.86636,-1.28068 0.48997,-0.32351 0.87671,-0.43407 0.87929,-0.22242 0.01,0.81133 1.02643,0.2697 1.15654,-0.63154 l 0.12925,-0.97179 0.0648,0.96942 c 0.0417,0.5287 0.24114,0.96726 0.4528,0.96468 0.24692,-0.003 0.31359,-0.32136 0.18431,-0.79606 -0.12885,-0.43943 -0.24243,-1.07309 -0.24653,-1.40821 -0.008,-0.63495 -0.39794,-0.80659 -0.83371,-0.37789" />
    <path
       style="stroke-width:0.0176389"
       id="path899"
       d="m 165.86974,177.60907 c 0.13122,0.63344 0.2517,1.83151 0.26205,2.67811 0.0108,0.88188 0.1777,1.55017 0.40698,1.54736 0.59968,-0.007 0.18551,-5.02972 -0.41654,-5.21641 -0.38953,-0.11872 -0.43985,0.0936 -0.25249,0.99094" />
    <path
       style="stroke-width:0.0176389"
       id="path901"
       d="m 144.04137,177.6211 c -0.13552,0.21528 -0.38053,0.29228 -0.57727,0.19156 -0.17909,-0.10118 -0.42226,0.0464 -0.51975,0.36651 -0.11558,0.30299 -0.34065,0.46769 -0.50165,0.38368 -0.16147,-0.10164 -0.38885,-0.0251 -0.48957,0.17162 -0.11881,0.17957 -0.43435,0.25841 -0.73688,0.16046 -0.2849,-0.0984 -0.51228,-0.0219 -0.50674,0.18972 0.006,0.21159 -0.22137,0.30576 -0.52437,0.19018 -0.33825,-0.11466 -0.52852,0.0315 -0.51882,0.40177 0.008,0.31739 -0.12814,0.49742 -0.32487,0.3967 -0.17956,-0.11881 -0.4747,0.0654 -0.65989,0.40547 -0.26827,0.53637 -0.41026,0.5048 -1.24399,-0.33797 l -0.92514,-0.96389 -0.92908,0.90657 -0.91146,0.90612 -0.88802,-0.89428 c -0.67088,-0.68824 -0.93815,-0.78711 -1.14097,-0.44654 -0.15176,0.26865 -0.37591,0.46861 -0.49981,0.45421 -0.12389,-0.0144 -0.53923,0.29644 -0.91699,0.69452 -0.78987,0.83235 -0.1514,0.95679 0.83382,0.17226 0.63949,-0.5108 1.61253,-0.41277 2.05234,0.21093 0.12851,0.19073 0.51735,0.21584 0.88349,0.0474 1.22044,-0.5613 2.13689,-0.60295 2.57393,-0.085 0.39993,0.4483 0.57626,0.44368 1.54985,-0.11116 0.60884,-0.33355 1.18333,-0.63091 1.27057,-0.66849 0.10534,-0.0204 0.4891,-0.18926 0.87287,-0.35811 3.21028,-1.38979 2.96388,-1.36569 2.99112,-0.32535 0.0139,0.52898 0.20727,1.17678 0.39144,1.47192 0.25656,0.36382 0.27843,-0.14845 0.0819,-1.59019 -0.30827,-2.3387 -0.36533,-2.49601 -0.68604,-1.94062" />
  </g>
</svg>
